<?xml version="1.0" encoding="UTF-8" standalone="no"?>
<!-- Created with Inkscape (http://www.inkscape.org/) -->

<svg
   xmlns:dc="http://purl.org/dc/elements/1.1/"
   xmlns:cc="http://creativecommons.org/ns#"
   xmlns:rdf="http://www.w3.org/1999/02/22-rdf-syntax-ns#"
   xmlns:svg="http://www.w3.org/2000/svg"
   xmlns="http://www.w3.org/2000/svg"
   xmlns:sodipodi="http://sodipodi.sourceforge.net/DTD/sodipodi-0.dtd"
   xmlns:inkscape="http://www.inkscape.org/namespaces/inkscape"
   width="60cm"
   height="30cm"
   viewBox="0 0 2125.9842 1062.9921"
   id="svg4457"
   version="1.1"
   inkscape:version="0.91 r13725"
   sodipodi:docname="Bovenste + mounting 3mm.svg">
  <defs
     id="defs4459" />
  <sodipodi:namedview
     id="base"
     pagecolor="#ffffff"
     bordercolor="#666666"
     borderopacity="1.0"
     inkscape:pageopacity="0.0"
     inkscape:pageshadow="2"
     inkscape:zoom="0.49497475"
     inkscape:cx="794.20879"
     inkscape:cy="636.34918"
     inkscape:document-units="px"
     inkscape:current-layer="layer1"
     showgrid="false"
     units="cm"
     inkscape:window-width="1920"
     inkscape:window-height="1018"
     inkscape:window-x="-8"
     inkscape:window-y="-8"
     inkscape:window-maximized="1" />
  <metadata
     id="metadata4462">
    <rdf:RDF>
      <cc:Work
         rdf:about="">
        <dc:format>image/svg+xml</dc:format>
        <dc:type
           rdf:resource="http://purl.org/dc/dcmitype/StillImage" />
        <dc:title></dc:title>
      </cc:Work>
    </rdf:RDF>
  </metadata>
  <g
     inkscape:label="Laag 1"
     inkscape:groupmode="layer"
     id="layer1"
     transform="translate(0,10.629874)">
    <g
       transform="matrix(1.25,0,0,-1.25,-363.41071,2594.1659)"
       inkscape:label="20150510_BovenBovenPlaat"
       id="g5013"
       style="stroke:#ff0000;stroke-opacity:1;stroke-width:0.14173228;stroke-miterlimit:4;stroke-dasharray:none;stroke-linejoin:round">
      <g
         transform="translate(323.1,1294.9)"
         id="g5015"
         style="stroke:#ff0000;stroke-opacity:1;stroke-width:0.14173228;stroke-miterlimit:4;stroke-dasharray:none;stroke-linejoin:round">
        <path
           inkscape:connector-curvature="0"
           id="path5017"
           style="fill:none;stroke:#ff0000;stroke-width:0.14173228;stroke-linecap:round;stroke-linejoin:round;stroke-miterlimit:4;stroke-dasharray:none;stroke-opacity:1"
           d="m 0,0 0.4,-6.8 1.2,-6.7 2.1,-6.6 2.8,-6.2 3.5,-5.9 4.2,-5.4 4.9,-4.8 5.4,-4.2 5.8,-3.6 6.3,-2.8 6.5,-2 6.7,-1.3 6.9,-0.4 M 0,526.8 0,0 m 730.8,580.7 -8.7,15.2 -9.3,14.8 -10.1,14.3 -10.6,13.9 -11.4,13.4 -11.9,12.8 -12.5,12.3 -13,11.6 -13.6,11.1 -14.1,10.4 -14.5,9.8 -14.9,9.1 -15.4,8.4 -15.8,7.7 -16,6.9 -16.4,6.2 -16.6,5.5 -16.9,4.7 -17.1,3.8 -17.2,3.1 -17.4,2.3 -17.4,1.5 M 744.4,0 l 0,526.8 m -56.7,-583.5 6.9,0.4 6.7,1.3 6.6,2 6.2,2.8 5.9,3.6 5.3,4.2 4.9,4.8 4.2,5.4 3.5,5.9 2.9,6.2 2,6.6 1.2,6.7 0.4,6.8 m -687.7,-56.7 631,0 m -566.4,191.4 -0.3,1.6 -0.9,1.4 -1.4,0.9 -1.6,0.3 -1.6,-0.3 -1.4,-0.9 -0.9,-1.4 -0.4,-1.6 0.4,-1.7 0.9,-1.3 1.4,-1 1.6,-0.3 1.6,0.3 1.4,1 0.9,1.3 0.3,1.7 m 0,28.3 -0.3,1.6 -0.9,1.4 -1.4,0.9 -1.6,0.4 -1.6,-0.4 -1.4,-0.9 -0.9,-1.4 -0.4,-1.6 0.4,-1.6 0.9,-1.4 1.4,-0.9 1.6,-0.3 1.6,0.3 1.4,0.9 0.9,1.4 0.3,1.6 m 0,28.4 -0.3,1.6 -0.9,1.4 -1.4,0.9 -1.6,0.3 -1.6,-0.3 -1.4,-0.9 -0.9,-1.4 -0.4,-1.6 0.4,-1.7 0.9,-1.3 1.4,-1 1.6,-0.3 1.6,0.3 1.4,1 0.9,1.3 0.3,1.7 m 0,28.3 -0.3,1.6 -0.9,1.4 -1.4,0.9 -1.6,0.4 -1.6,-0.4 -1.4,-0.9 -0.9,-1.4 -0.4,-1.6 0.4,-1.6 0.9,-1.4 1.4,-0.9 1.6,-0.3 1.6,0.3 1.4,0.9 0.9,1.4 0.3,1.6 m 0,28.4 -0.3,1.6 -0.9,1.4 -1.4,0.9 -1.6,0.3 -1.6,-0.3 -1.4,-0.9 -0.9,-1.4 -0.4,-1.6 0.4,-1.7 0.9,-1.4 1.4,-0.9 1.6,-0.3 1.6,0.3 1.4,0.9 0.9,1.4 0.3,1.7 m 0,28.3 -0.3,1.6 -0.9,1.4 -1.4,0.9 -1.6,0.4 -1.6,-0.4 -1.4,-0.9 -0.9,-1.4 -0.4,-1.6 0.4,-1.6 0.9,-1.4 1.4,-0.9 1.6,-0.4 1.6,0.4 1.4,0.9 0.9,1.4 0.3,1.6 m 0,28.3 -0.3,1.7 -0.9,1.4 -1.4,0.9 -1.6,0.3 -1.6,-0.3 -1.4,-0.9 -0.9,-1.4 -0.4,-1.7 0.4,-1.6 0.9,-1.4 1.4,-0.9 1.6,-0.3 1.6,0.3 1.4,0.9 0.9,1.4 0.3,1.6 m 0,28.4 -0.3,1.6 -0.9,1.4 -1.4,0.9 -1.6,0.3 -1.6,-0.3 -1.4,-0.9 -0.9,-1.4 -0.4,-1.6 0.4,-1.6 0.9,-1.4 1.4,-0.9 1.6,-0.4 1.6,0.4 1.4,0.9 0.9,1.4 0.3,1.6 m 0,28.3 -0.3,1.7 -0.9,1.3 -1.4,1 -1.6,0.3 -1.6,-0.3 -1.4,-1 -0.9,-1.3 -0.4,-1.7 0.4,-1.6 0.9,-1.4 1.4,-0.9 1.6,-0.3 1.6,0.3 1.4,0.9 0.9,1.4 0.3,1.6 m 0,28.4 -0.3,1.6 -0.9,1.4 -1.4,0.9 -1.6,0.3 -1.6,-0.3 -1.4,-0.9 -0.9,-1.4 -0.4,-1.6 0.4,-1.6 0.9,-1.4 1.4,-0.9 1.6,-0.4 1.6,0.4 1.4,0.9 0.9,1.4 0.3,1.6 m 0,28.3 -0.3,1.7 -0.9,1.3 -1.4,1 -1.6,0.3 -1.6,-0.3 -1.4,-1 -0.9,-1.3 -0.4,-1.7 0.4,-1.6 0.9,-1.4 1.4,-0.9 1.6,-0.3 1.6,0.3 1.4,0.9 0.9,1.4 0.3,1.6 m 0,28.4 -0.3,1.6 -0.9,1.4 -1.4,0.9 -1.6,0.3 -1.6,-0.3 -1.4,-0.9 -0.9,-1.4 -0.4,-1.6 0.4,-1.7 0.9,-1.3 1.4,-1 1.6,-0.3 1.6,0.3 1.4,1 0.9,1.3 0.3,1.7 m 0,28.3 -0.3,1.7 -0.9,1.3 -1.4,1 -1.6,0.3 -1.6,-0.3 -1.4,-1 -0.9,-1.3 -0.4,-1.7 0.4,-1.6 0.9,-1.4 1.4,-0.9 1.6,-0.3 1.6,0.3 1.4,0.9 0.9,1.4 0.3,1.6 m 0,28.4 -0.3,1.6 -0.9,1.4 -1.4,0.9 -1.6,0.3 -1.6,-0.3 -1.4,-0.9 -0.9,-1.4 -0.4,-1.6 0.4,-1.7 0.9,-1.3 1.4,-1 1.6,-0.3 1.6,0.3 1.4,1 0.9,1.3 0.3,1.7 m 0,28.3 -0.3,1.6 -0.9,1.4 -1.4,0.9 -1.6,0.4 -1.6,-0.4 -1.4,-0.9 -0.9,-1.4 -0.4,-1.6 0.4,-1.6 0.9,-1.4 1.4,-0.9 1.6,-0.3 1.6,0.3 1.4,0.9 0.9,1.4 0.3,1.6 m 0,28.4 -0.3,1.6 -0.9,1.4 -1.4,0.9 -1.6,0.3 -1.6,-0.3 -1.4,-0.9 -0.9,-1.4 -0.4,-1.6 0.4,-1.7 0.9,-1.3 1.4,-1 1.6,-0.3 1.6,0.3 1.4,1 0.9,1.3 0.3,1.7 m 0,28.3 -0.3,1.6 -0.9,1.4 -1.4,0.9 -1.6,0.4 -1.6,-0.4 -1.4,-0.9 -0.9,-1.4 -0.4,-1.6 0.4,-1.6 0.9,-1.4 1.4,-0.9 1.6,-0.3 1.6,0.3 1.4,0.9 0.9,1.4 0.3,1.6 m 28.4,-453.5 -0.3,1.6 -1,1.4 -1.3,0.9 -1.7,0.3 -1.6,-0.3 -1.4,-0.9 -0.9,-1.4 -0.3,-1.6 0.3,-1.7 0.9,-1.3 1.4,-1 1.6,-0.3 1.7,0.3 1.3,1 1,1.3 0.3,1.7 m 0,28.3 -0.3,1.6 -1,1.4 -1.3,0.9 -1.7,0.4 -1.6,-0.4 -1.4,-0.9 -0.9,-1.4 -0.3,-1.6 0.3,-1.6 0.9,-1.4 1.4,-0.9 1.6,-0.3 1.7,0.3 1.3,0.9 1,1.4 0.3,1.6 m 0,28.4 -0.3,1.6 -1,1.4 -1.3,0.9 -1.7,0.3 -1.6,-0.3 -1.4,-0.9 -0.9,-1.4 -0.3,-1.6 0.3,-1.7 0.9,-1.3 1.4,-1 1.6,-0.3 1.7,0.3 1.3,1 1,1.3 0.3,1.7 m 0,28.3 -0.3,1.6 -1,1.4 -1.3,0.9 -1.7,0.4 -1.6,-0.4 -1.4,-0.9 -0.9,-1.4 -0.3,-1.6 0.3,-1.6 0.9,-1.4 1.4,-0.9 1.6,-0.3 1.7,0.3 1.3,0.9 1,1.4 0.3,1.6 m 0,28.4 -0.3,1.6 -1,1.4 -1.3,0.9 -1.7,0.3 -1.6,-0.3 -1.4,-0.9 -0.9,-1.4 -0.3,-1.6 0.3,-1.7 0.9,-1.4 1.4,-0.9 1.6,-0.3 1.7,0.3 1.3,0.9 1,1.4 0.3,1.7 m 0,28.3 -0.3,1.6 -1,1.4 -1.3,0.9 -1.7,0.4 -1.6,-0.4 -1.4,-0.9 -0.9,-1.4 -0.3,-1.6 0.3,-1.6 0.9,-1.4 1.4,-0.9 1.6,-0.4 1.7,0.4 1.3,0.9 1,1.4 0.3,1.6 m 0,28.3 -0.3,1.7 -1,1.4 -1.3,0.9 -1.7,0.3 -1.6,-0.3 -1.4,-0.9 -0.9,-1.4 -0.3,-1.7 0.3,-1.6 0.9,-1.4 1.4,-0.9 1.6,-0.3 1.7,0.3 1.3,0.9 1,1.4 0.3,1.6 m 0,28.4 -0.3,1.6 -1,1.4 -1.3,0.9 -1.7,0.3 -1.6,-0.3 -1.4,-0.9 -0.9,-1.4 -0.3,-1.6 0.3,-1.6 0.9,-1.4 1.4,-0.9 1.6,-0.4 1.7,0.4 1.3,0.9 1,1.4 0.3,1.6 m 0,28.3 -0.3,1.7 -1,1.3 -1.3,1 -1.7,0.3 -1.6,-0.3 -1.4,-1 -0.9,-1.3 -0.3,-1.7 0.3,-1.6 0.9,-1.4 1.4,-0.9 1.6,-0.3 1.7,0.3 1.3,0.9 1,1.4 0.3,1.6 m 0,28.4 -0.3,1.6 -1,1.4 -1.3,0.9 -1.7,0.3 -1.6,-0.3 -1.4,-0.9 -0.9,-1.4 -0.3,-1.6 0.3,-1.6 0.9,-1.4 1.4,-0.9 1.6,-0.4 1.7,0.4 1.3,0.9 1,1.4 0.3,1.6 m 0,28.3 -0.3,1.7 -1,1.3 -1.3,1 -1.7,0.3 -1.6,-0.3 -1.4,-1 -0.9,-1.3 -0.3,-1.7 0.3,-1.6 0.9,-1.4 1.4,-0.9 1.6,-0.3 1.7,0.3 1.3,0.9 1,1.4 0.3,1.6 m 0,28.4 -0.3,1.6 -1,1.4 -1.3,0.9 -1.7,0.3 -1.6,-0.3 -1.4,-0.9 -0.9,-1.4 -0.3,-1.6 0.3,-1.7 0.9,-1.3 1.4,-1 1.6,-0.3 1.7,0.3 1.3,1 1,1.3 0.3,1.7 m 0,28.3 -0.3,1.7 -1,1.3 -1.3,1 -1.7,0.3 -1.6,-0.3 -1.4,-1 -0.9,-1.3 -0.3,-1.7 0.3,-1.6 0.9,-1.4 1.4,-0.9 1.6,-0.3 1.7,0.3 1.3,0.9 1,1.4 0.3,1.6 m 0,28.4 -0.3,1.6 -1,1.4 -1.3,0.9 -1.7,0.3 -1.6,-0.3 -1.4,-0.9 -0.9,-1.4 -0.3,-1.6 0.3,-1.7 0.9,-1.3 1.4,-1 1.6,-0.3 1.7,0.3 1.3,1 1,1.3 0.3,1.7 m 0,28.3 -0.3,1.6 -1,1.4 -1.3,0.9 -1.7,0.4 -1.6,-0.4 -1.4,-0.9 -0.9,-1.4 -0.3,-1.6 0.3,-1.6 0.9,-1.4 1.4,-0.9 1.6,-0.3 1.7,0.3 1.3,0.9 1,1.4 0.3,1.6 m 0,28.4 -0.3,1.6 -1,1.4 -1.3,0.9 -1.7,0.3 -1.6,-0.3 -1.4,-0.9 -0.9,-1.4 -0.3,-1.6 0.3,-1.7 0.9,-1.3 1.4,-1 1.6,-0.3 1.7,0.3 1.3,1 1,1.3 0.3,1.7 m 0,28.3 -0.3,1.6 -1,1.4 -1.3,0.9 -1.7,0.4 -1.6,-0.4 -1.4,-0.9 -0.9,-1.4 -0.3,-1.6 0.3,-1.6 0.9,-1.4 1.4,-0.9 1.6,-0.3 1.7,0.3 1.3,0.9 1,1.4 0.3,1.6 m 28.3,-453.5 -0.3,1.6 -0.9,1.4 -1.4,0.9 -1.6,0.3 -1.6,-0.3 -1.4,-0.9 -0.9,-1.4 -0.4,-1.6 0.4,-1.7 0.9,-1.3 1.4,-1 1.6,-0.3 1.6,0.3 1.4,1 0.9,1.3 0.3,1.7 m 0,28.3 -0.3,1.6 -0.9,1.4 -1.4,0.9 -1.6,0.4 -1.6,-0.4 -1.4,-0.9 -0.9,-1.4 -0.4,-1.6 0.4,-1.6 0.9,-1.4 1.4,-0.9 1.6,-0.3 1.6,0.3 1.4,0.9 0.9,1.4 0.3,1.6 m 0,28.4 -0.3,1.6 -0.9,1.4 -1.4,0.9 -1.6,0.3 -1.6,-0.3 -1.4,-0.9 -0.9,-1.4 -0.4,-1.6 0.4,-1.7 0.9,-1.3 1.4,-1 1.6,-0.3 1.6,0.3 1.4,1 0.9,1.3 0.3,1.7 m 0,28.3 -0.3,1.6 -0.9,1.4 -1.4,0.9 -1.6,0.4 -1.6,-0.4 -1.4,-0.9 -0.9,-1.4 -0.4,-1.6 0.4,-1.6 0.9,-1.4 1.4,-0.9 1.6,-0.3 1.6,0.3 1.4,0.9 0.9,1.4 0.3,1.6 m 0,28.4 -0.3,1.6 -0.9,1.4 -1.4,0.9 -1.6,0.3 -1.6,-0.3 -1.4,-0.9 -0.9,-1.4 -0.4,-1.6 0.4,-1.7 0.9,-1.4 1.4,-0.9 1.6,-0.3 1.6,0.3 1.4,0.9 0.9,1.4 0.3,1.7 m 0,28.3 -0.3,1.6 -0.9,1.4 -1.4,0.9 -1.6,0.4 -1.6,-0.4 -1.4,-0.9 -0.9,-1.4 -0.4,-1.6 0.4,-1.6 0.9,-1.4 1.4,-0.9 1.6,-0.4 1.6,0.4 1.4,0.9 0.9,1.4 0.3,1.6 m 0,28.3 -0.3,1.7 -0.9,1.4 -1.4,0.9 -1.6,0.3 -1.6,-0.3 -1.4,-0.9 -0.9,-1.4 -0.4,-1.7 0.4,-1.6 0.9,-1.4 1.4,-0.9 1.6,-0.3 1.6,0.3 1.4,0.9 0.9,1.4 0.3,1.6 m 0,28.4 -0.3,1.6 -0.9,1.4 -1.4,0.9 -1.6,0.3 -1.6,-0.3 -1.4,-0.9 -0.9,-1.4 -0.4,-1.6 0.4,-1.6 0.9,-1.4 1.4,-0.9 1.6,-0.4 1.6,0.4 1.4,0.9 0.9,1.4 0.3,1.6 m 0,28.3 -0.3,1.7 -0.9,1.3 -1.4,1 -1.6,0.3 -1.6,-0.3 -1.4,-1 -0.9,-1.3 -0.4,-1.7 0.4,-1.6 0.9,-1.4 1.4,-0.9 1.6,-0.3 1.6,0.3 1.4,0.9 0.9,1.4 0.3,1.6 m 0,28.4 -0.3,1.6 -0.9,1.4 -1.4,0.9 -1.6,0.3 -1.6,-0.3 -1.4,-0.9 -0.9,-1.4 -0.4,-1.6 0.4,-1.6 0.9,-1.4 1.4,-0.9 1.6,-0.4 1.6,0.4 1.4,0.9 0.9,1.4 0.3,1.6 m 0,28.3 -0.3,1.7 -0.9,1.3 -1.4,1 -1.6,0.3 -1.6,-0.3 -1.4,-1 -0.9,-1.3 -0.4,-1.7 0.4,-1.6 0.9,-1.4 1.4,-0.9 1.6,-0.3 1.6,0.3 1.4,0.9 0.9,1.4 0.3,1.6 m 0,28.4 -0.3,1.6 -0.9,1.4 -1.4,0.9 -1.6,0.3 -1.6,-0.3 -1.4,-0.9 -0.9,-1.4 -0.4,-1.6 0.4,-1.7 0.9,-1.3 1.4,-1 1.6,-0.3 1.6,0.3 1.4,1 0.9,1.3 0.3,1.7 m 0,28.3 -0.3,1.7 -0.9,1.3 -1.4,1 -1.6,0.3 -1.6,-0.3 -1.4,-1 -0.9,-1.3 -0.4,-1.7 0.4,-1.6 0.9,-1.4 1.4,-0.9 1.6,-0.3 1.6,0.3 1.4,0.9 0.9,1.4 0.3,1.6 m 0,28.4 -0.3,1.6 -0.9,1.4 -1.4,0.9 -1.6,0.3 -1.6,-0.3 -1.4,-0.9 -0.9,-1.4 -0.4,-1.6 0.4,-1.7 0.9,-1.3 1.4,-1 1.6,-0.3 1.6,0.3 1.4,1 0.9,1.3 0.3,1.7 m 0,28.3 -0.3,1.6 -0.9,1.4 -1.4,0.9 -1.6,0.4 -1.6,-0.4 -1.4,-0.9 -0.9,-1.4 -0.4,-1.6 0.4,-1.6 0.9,-1.4 1.4,-0.9 1.6,-0.3 1.6,0.3 1.4,0.9 0.9,1.4 0.3,1.6 m 0,28.4 -0.3,1.6 -0.9,1.4 -1.4,0.9 -1.6,0.3 -1.6,-0.3 -1.4,-0.9 -0.9,-1.4 -0.4,-1.6 0.4,-1.7 0.9,-1.3 1.4,-1 1.6,-0.3 1.6,0.3 1.4,1 0.9,1.3 0.3,1.7 m 0,28.3 -0.3,1.6 -0.9,1.4 -1.4,0.9 -1.6,0.4 -1.6,-0.4 -1.4,-0.9 -0.9,-1.4 -0.4,-1.6 0.4,-1.6 0.9,-1.4 1.4,-0.9 1.6,-0.3 1.6,0.3 1.4,0.9 0.9,1.4 0.3,1.6 m 28.4,-453.5 -0.3,1.6 -1,1.4 -1.3,0.9 -1.7,0.3 -1.6,-0.3 -1.4,-0.9 -0.9,-1.4 -0.3,-1.6 0.3,-1.7 0.9,-1.3 1.4,-1 1.6,-0.3 1.7,0.3 1.3,1 1,1.3 0.3,1.7 m 0,28.3 -0.3,1.6 -1,1.4 -1.3,0.9 -1.7,0.4 -1.6,-0.4 -1.4,-0.9 -0.9,-1.4 -0.3,-1.6 0.3,-1.6 0.9,-1.4 1.4,-0.9 1.6,-0.3 1.7,0.3 1.3,0.9 1,1.4 0.3,1.6 m 0,28.4 -0.3,1.6 -1,1.4 -1.3,0.9 -1.7,0.3 -1.6,-0.3 -1.4,-0.9 -0.9,-1.4 -0.3,-1.6 0.3,-1.7 0.9,-1.3 1.4,-1 1.6,-0.3 1.7,0.3 1.3,1 1,1.3 0.3,1.7 m 0,28.3 -0.3,1.6 -1,1.4 -1.3,0.9 -1.7,0.4 -1.6,-0.4 -1.4,-0.9 -0.9,-1.4 -0.3,-1.6 0.3,-1.6 0.9,-1.4 1.4,-0.9 1.6,-0.3 1.7,0.3 1.3,0.9 1,1.4 0.3,1.6 m 0,28.4 -0.3,1.6 -1,1.4 -1.3,0.9 -1.7,0.3 -1.6,-0.3 -1.4,-0.9 -0.9,-1.4 -0.3,-1.6 0.3,-1.7 0.9,-1.4 1.4,-0.9 1.6,-0.3 1.7,0.3 1.3,0.9 1,1.4 0.3,1.7 m 0,28.3 -0.3,1.6 -1,1.4 -1.3,0.9 -1.7,0.4 -1.6,-0.4 -1.4,-0.9 -0.9,-1.4 -0.3,-1.6 0.3,-1.6 0.9,-1.4 1.4,-0.9 1.6,-0.4 1.7,0.4 1.3,0.9 1,1.4 0.3,1.6 m 0,28.3 -0.3,1.7 -1,1.4 -1.3,0.9 -1.7,0.3 -1.6,-0.3 -1.4,-0.9 -0.9,-1.4 -0.3,-1.7 0.3,-1.6 0.9,-1.4 1.4,-0.9 1.6,-0.3 1.7,0.3 1.3,0.9 1,1.4 0.3,1.6 m 0,28.4 -0.3,1.6 -1,1.4 -1.3,0.9 -1.7,0.3 -1.6,-0.3 -1.4,-0.9 -0.9,-1.4 -0.3,-1.6 0.3,-1.6 0.9,-1.4 1.4,-0.9 1.6,-0.4 1.7,0.4 1.3,0.9 1,1.4 0.3,1.6 m 0,28.3 -0.3,1.7 -1,1.3 -1.3,1 -1.7,0.3 -1.6,-0.3 -1.4,-1 -0.9,-1.3 -0.3,-1.7 0.3,-1.6 0.9,-1.4 1.4,-0.9 1.6,-0.3 1.7,0.3 1.3,0.9 1,1.4 0.3,1.6 m 0,28.4 -0.3,1.6 -1,1.4 -1.3,0.9 -1.7,0.3 -1.6,-0.3 -1.4,-0.9 -0.9,-1.4 -0.3,-1.6 0.3,-1.6 0.9,-1.4 1.4,-0.9 1.6,-0.4 1.7,0.4 1.3,0.9 1,1.4 0.3,1.6 m 0,28.3 -0.3,1.7 -1,1.3 -1.3,1 -1.7,0.3 -1.6,-0.3 -1.4,-1 -0.9,-1.3 -0.3,-1.7 0.3,-1.6 0.9,-1.4 1.4,-0.9 1.6,-0.3 1.7,0.3 1.3,0.9 1,1.4 0.3,1.6 m 0,28.4 -0.3,1.6 -1,1.4 -1.3,0.9 -1.7,0.3 -1.6,-0.3 -1.4,-0.9 -0.9,-1.4 -0.3,-1.6 0.3,-1.7 0.9,-1.3 1.4,-1 1.6,-0.3 1.7,0.3 1.3,1 1,1.3 0.3,1.7 m 0,28.3 -0.3,1.7 -1,1.3 -1.3,1 -1.7,0.3 -1.6,-0.3 -1.4,-1 -0.9,-1.3 -0.3,-1.7 0.3,-1.6 0.9,-1.4 1.4,-0.9 1.6,-0.3 1.7,0.3 1.3,0.9 1,1.4 0.3,1.6 m 0,28.4 -0.3,1.6 -1,1.4 -1.3,0.9 -1.7,0.3 -1.6,-0.3 -1.4,-0.9 -0.9,-1.4 -0.3,-1.6 0.3,-1.7 0.9,-1.3 1.4,-1 1.6,-0.3 1.7,0.3 1.3,1 1,1.3 0.3,1.7 m 0,28.3 -0.3,1.6 -1,1.4 -1.3,0.9 -1.7,0.4 -1.6,-0.4 -1.4,-0.9 -0.9,-1.4 -0.3,-1.6 0.3,-1.6 0.9,-1.4 1.4,-0.9 1.6,-0.3 1.7,0.3 1.3,0.9 1,1.4 0.3,1.6 m 0,28.4 -0.3,1.6 -1,1.4 -1.3,0.9 -1.7,0.3 -1.6,-0.3 -1.4,-0.9 -0.9,-1.4 -0.3,-1.6 0.3,-1.7 0.9,-1.3 1.4,-1 1.6,-0.3 1.7,0.3 1.3,1 1,1.3 0.3,1.7 m 0,28.3 -0.3,1.6 -1,1.4 -1.3,0.9 -1.7,0.4 -1.6,-0.4 -1.4,-0.9 -0.9,-1.4 -0.3,-1.6 0.3,-1.6 0.9,-1.4 1.4,-0.9 1.6,-0.3 1.7,0.3 1.3,0.9 1,1.4 0.3,1.6 m 28.3,-453.5 -0.3,1.6 -0.9,1.4 -1.4,0.9 -1.6,0.3 -1.6,-0.3 -1.4,-0.9 -1,-1.4 -0.3,-1.6 0.3,-1.7 1,-1.3 1.4,-1 1.6,-0.3 1.6,0.3 1.4,1 0.9,1.3 0.3,1.7 m 0,28.3 -0.3,1.6 -0.9,1.4 -1.4,0.9 -1.6,0.4 -1.6,-0.4 -1.4,-0.9 -1,-1.4 -0.3,-1.6 0.3,-1.6 1,-1.4 1.4,-0.9 1.6,-0.3 1.6,0.3 1.4,0.9 0.9,1.4 0.3,1.6 m 0,28.4 -0.3,1.6 -0.9,1.4 -1.4,0.9 -1.6,0.3 -1.6,-0.3 -1.4,-0.9 -1,-1.4 -0.3,-1.6 0.3,-1.7 1,-1.3 1.4,-1 1.6,-0.3 1.6,0.3 1.4,1 0.9,1.3 0.3,1.7 m 0,28.3 -0.3,1.6 -0.9,1.4 -1.4,0.9 -1.6,0.4 -1.6,-0.4 -1.4,-0.9 -1,-1.4 -0.3,-1.6 0.3,-1.6 1,-1.4 1.4,-0.9 1.6,-0.3 1.6,0.3 1.4,0.9 0.9,1.4 0.3,1.6 m 0,28.4 -0.3,1.6 -0.9,1.4 -1.4,0.9 -1.6,0.3 -1.6,-0.3 -1.4,-0.9 -1,-1.4 -0.3,-1.6 0.3,-1.7 1,-1.4 1.4,-0.9 1.6,-0.3 1.6,0.3 1.4,0.9 0.9,1.4 0.3,1.7 m 0,28.3 -0.3,1.6 -0.9,1.4 -1.4,0.9 -1.6,0.4 -1.6,-0.4 -1.4,-0.9 -1,-1.4 -0.3,-1.6 0.3,-1.6 1,-1.4 1.4,-0.9 1.6,-0.4 1.6,0.4 1.4,0.9 0.9,1.4 0.3,1.6 m 0,28.3 -0.3,1.7 -0.9,1.4 -1.4,0.9 -1.6,0.3 -1.6,-0.3 -1.4,-0.9 -1,-1.4 -0.3,-1.7 0.3,-1.6 1,-1.4 1.4,-0.9 1.6,-0.3 1.6,0.3 1.4,0.9 0.9,1.4 0.3,1.6 m 0,28.4 -0.3,1.6 -0.9,1.4 -1.4,0.9 -1.6,0.3 -1.6,-0.3 -1.4,-0.9 -1,-1.4 -0.3,-1.6 0.3,-1.6 1,-1.4 1.4,-0.9 1.6,-0.4 1.6,0.4 1.4,0.9 0.9,1.4 0.3,1.6 m 0,28.3 -0.3,1.7 -0.9,1.3 -1.4,1 -1.6,0.3 -1.6,-0.3 -1.4,-1 -1,-1.3 -0.3,-1.7 0.3,-1.6 1,-1.4 1.4,-0.9 1.6,-0.3 1.6,0.3 1.4,0.9 0.9,1.4 0.3,1.6 m 0,28.4 -0.3,1.6 -0.9,1.4 -1.4,0.9 -1.6,0.3 -1.6,-0.3 -1.4,-0.9 -1,-1.4 -0.3,-1.6 0.3,-1.6 1,-1.4 1.4,-0.9 1.6,-0.4 1.6,0.4 1.4,0.9 0.9,1.4 0.3,1.6 m 0,28.3 -0.3,1.7 -0.9,1.3 -1.4,1 -1.6,0.3 -1.6,-0.3 -1.4,-1 -1,-1.3 -0.3,-1.7 0.3,-1.6 1,-1.4 1.4,-0.9 1.6,-0.3 1.6,0.3 1.4,0.9 0.9,1.4 0.3,1.6 m 0,28.4 -0.3,1.6 -0.9,1.4 -1.4,0.9 -1.6,0.3 -1.6,-0.3 -1.4,-0.9 -1,-1.4 -0.3,-1.6 0.3,-1.7 1,-1.3 1.4,-1 1.6,-0.3 1.6,0.3 1.4,1 0.9,1.3 0.3,1.7 m 0,28.3 -0.3,1.7 -0.9,1.3 -1.4,1 -1.6,0.3 -1.6,-0.3 -1.4,-1 -1,-1.3 -0.3,-1.7 0.3,-1.6 1,-1.4 1.4,-0.9 1.6,-0.3 1.6,0.3 1.4,0.9 0.9,1.4 0.3,1.6 m 0,28.4 -0.3,1.6 -0.9,1.4 -1.4,0.9 -1.6,0.3 -1.6,-0.3 -1.4,-0.9 -1,-1.4 -0.3,-1.6 0.3,-1.7 1,-1.3 1.4,-1 1.6,-0.3 1.6,0.3 1.4,1 0.9,1.3 0.3,1.7 m 0,28.3 -0.3,1.6 -0.9,1.4 -1.4,0.9 -1.6,0.4 -1.6,-0.4 -1.4,-0.9 -1,-1.4 -0.3,-1.6 0.3,-1.6 1,-1.4 1.4,-0.9 1.6,-0.3 1.6,0.3 1.4,0.9 0.9,1.4 0.3,1.6 m 0,28.4 -0.3,1.6 -0.9,1.4 -1.4,0.9 -1.6,0.3 -1.6,-0.3 -1.4,-0.9 -1,-1.4 -0.3,-1.6 0.3,-1.7 1,-1.3 1.4,-1 1.6,-0.3 1.6,0.3 1.4,1 0.9,1.3 0.3,1.7 m 0,28.3 -0.3,1.6 -0.9,1.4 -1.4,0.9 -1.6,0.4 -1.6,-0.4 -1.4,-0.9 -1,-1.4 -0.3,-1.6 0.3,-1.6 1,-1.4 1.4,-0.9 1.6,-0.3 1.6,0.3 1.4,0.9 0.9,1.4 0.3,1.6 m 28.4,-453.5 -0.3,1.6 -1,1.4 -1.3,0.9 -1.7,0.3 -1.6,-0.3 -1.4,-0.9 -0.9,-1.4 -0.3,-1.6 0.3,-1.7 0.9,-1.3 1.4,-1 1.6,-0.3 1.7,0.3 1.3,1 1,1.3 0.3,1.7 m 0,28.3 -0.3,1.6 -1,1.4 -1.3,0.9 -1.7,0.4 -1.6,-0.4 -1.4,-0.9 -0.9,-1.4 -0.3,-1.6 0.3,-1.6 0.9,-1.4 1.4,-0.9 1.6,-0.3 1.7,0.3 1.3,0.9 1,1.4 0.3,1.6 m 0,28.4 -0.3,1.6 -1,1.4 -1.3,0.9 -1.7,0.3 -1.6,-0.3 -1.4,-0.9 -0.9,-1.4 -0.3,-1.6 0.3,-1.7 0.9,-1.3 1.4,-1 1.6,-0.3 1.7,0.3 1.3,1 1,1.3 0.3,1.7 m 0,28.3 -0.3,1.6 -1,1.4 -1.3,0.9 -1.7,0.4 -1.6,-0.4 -1.4,-0.9 -0.9,-1.4 -0.3,-1.6 0.3,-1.6 0.9,-1.4 1.4,-0.9 1.6,-0.3 1.7,0.3 1.3,0.9 1,1.4 0.3,1.6 m 0,28.4 -0.3,1.6 -1,1.4 -1.3,0.9 -1.7,0.3 -1.6,-0.3 -1.4,-0.9 -0.9,-1.4 -0.3,-1.6 0.3,-1.7 0.9,-1.4 1.4,-0.9 1.6,-0.3 1.7,0.3 1.3,0.9 1,1.4 0.3,1.7 m 0,28.3 -0.3,1.6 -1,1.4 -1.3,0.9 -1.7,0.4 -1.6,-0.4 -1.4,-0.9 -0.9,-1.4 -0.3,-1.6 0.3,-1.6 0.9,-1.4 1.4,-0.9 1.6,-0.4 1.7,0.4 1.3,0.9 1,1.4 0.3,1.6 m 0,28.3 -0.3,1.7 -1,1.4 -1.3,0.9 -1.7,0.3 -1.6,-0.3 -1.4,-0.9 -0.9,-1.4 -0.3,-1.7 0.3,-1.6 0.9,-1.4 1.4,-0.9 1.6,-0.3 1.7,0.3 1.3,0.9 1,1.4 0.3,1.6 m 0,28.4 -0.3,1.6 -1,1.4 -1.3,0.9 -1.7,0.3 -1.6,-0.3 -1.4,-0.9 -0.9,-1.4 -0.3,-1.6 0.3,-1.6 0.9,-1.4 1.4,-0.9 1.6,-0.4 1.7,0.4 1.3,0.9 1,1.4 0.3,1.6 m 0,28.3 -0.3,1.7 -1,1.3 -1.3,1 -1.7,0.3 -1.6,-0.3 -1.4,-1 -0.9,-1.3 -0.3,-1.7 0.3,-1.6 0.9,-1.4 1.4,-0.9 1.6,-0.3 1.7,0.3 1.3,0.9 1,1.4 0.3,1.6 m 0,28.4 -0.3,1.6 -1,1.4 -1.3,0.9 -1.7,0.3 -1.6,-0.3 -1.4,-0.9 -0.9,-1.4 -0.3,-1.6 0.3,-1.6 0.9,-1.4 1.4,-0.9 1.6,-0.4 1.7,0.4 1.3,0.9 1,1.4 0.3,1.6 m 0,28.3 -0.3,1.7 -1,1.3 -1.3,1 -1.7,0.3 -1.6,-0.3 -1.4,-1 -0.9,-1.3 -0.3,-1.7 0.3,-1.6 0.9,-1.4 1.4,-0.9 1.6,-0.3 1.7,0.3 1.3,0.9 1,1.4 0.3,1.6 m 0,28.4 -0.3,1.6 -1,1.4 -1.3,0.9 -1.7,0.3 -1.6,-0.3 -1.4,-0.9 -0.9,-1.4 -0.3,-1.6 0.3,-1.7 0.9,-1.3 1.4,-1 1.6,-0.3 1.7,0.3 1.3,1 1,1.3 0.3,1.7 m 0,28.3 -0.3,1.7 -1,1.3 -1.3,1 -1.7,0.3 -1.6,-0.3 -1.4,-1 -0.9,-1.3 -0.3,-1.7 0.3,-1.6 0.9,-1.4 1.4,-0.9 1.6,-0.3 1.7,0.3 1.3,0.9 1,1.4 0.3,1.6 m 0,28.4 -0.3,1.6 -1,1.4 -1.3,0.9 -1.7,0.3 -1.6,-0.3 -1.4,-0.9 -0.9,-1.4 -0.3,-1.6 0.3,-1.7 0.9,-1.3 1.4,-1 1.6,-0.3 1.7,0.3 1.3,1 1,1.3 0.3,1.7 m 0,28.3 -0.3,1.6 -1,1.4 -1.3,0.9 -1.7,0.4 -1.6,-0.4 -1.4,-0.9 -0.9,-1.4 -0.3,-1.6 0.3,-1.6 0.9,-1.4 1.4,-0.9 1.6,-0.3 1.7,0.3 1.3,0.9 1,1.4 0.3,1.6 m 0,28.4 -0.3,1.6 -1,1.4 -1.3,0.9 -1.7,0.3 -1.6,-0.3 -1.4,-0.9 -0.9,-1.4 -0.3,-1.6 0.3,-1.7 0.9,-1.3 1.4,-1 1.6,-0.3 1.7,0.3 1.3,1 1,1.3 0.3,1.7 m 0,28.3 -0.3,1.6 -1,1.4 -1.3,0.9 -1.7,0.4 -1.6,-0.4 -1.4,-0.9 -0.9,-1.4 -0.3,-1.6 0.3,-1.6 0.9,-1.4 1.4,-0.9 1.6,-0.3 1.7,0.3 1.3,0.9 1,1.4 0.3,1.6 m 28.3,-453.5 -0.3,1.6 -0.9,1.4 -1.4,0.9 -1.6,0.3 -1.7,-0.3 -1.3,-0.9 -1,-1.4 -0.3,-1.6 0.3,-1.7 1,-1.3 1.3,-1 1.7,-0.3 1.6,0.3 1.4,1 0.9,1.3 0.3,1.7 m 0,28.3 -0.3,1.6 -0.9,1.4 -1.4,0.9 -1.6,0.4 -1.7,-0.4 -1.3,-0.9 -1,-1.4 -0.3,-1.6 0.3,-1.6 1,-1.4 1.3,-0.9 1.7,-0.3 1.6,0.3 1.4,0.9 0.9,1.4 0.3,1.6 m 0,28.4 -0.3,1.6 -0.9,1.4 -1.4,0.9 -1.6,0.3 -1.7,-0.3 -1.3,-0.9 -1,-1.4 -0.3,-1.6 0.3,-1.7 1,-1.3 1.3,-1 1.7,-0.3 1.6,0.3 1.4,1 0.9,1.3 0.3,1.7 m 0,28.3 -0.3,1.6 -0.9,1.4 -1.4,0.9 -1.6,0.4 -1.7,-0.4 -1.3,-0.9 -1,-1.4 -0.3,-1.6 0.3,-1.6 1,-1.4 1.3,-0.9 1.7,-0.3 1.6,0.3 1.4,0.9 0.9,1.4 0.3,1.6 m 0,28.4 -0.3,1.6 -0.9,1.4 -1.4,0.9 -1.6,0.3 -1.7,-0.3 -1.3,-0.9 -1,-1.4 -0.3,-1.6 0.3,-1.7 1,-1.4 1.3,-0.9 1.7,-0.3 1.6,0.3 1.4,0.9 0.9,1.4 0.3,1.7 m 0,28.3 -0.3,1.6 -0.9,1.4 -1.4,0.9 -1.6,0.4 -1.7,-0.4 -1.3,-0.9 -1,-1.4 -0.3,-1.6 0.3,-1.6 1,-1.4 1.3,-0.9 1.7,-0.4 1.6,0.4 1.4,0.9 0.9,1.4 0.3,1.6 m 0,28.3 -0.3,1.7 -0.9,1.4 -1.4,0.9 -1.6,0.3 -1.7,-0.3 -1.3,-0.9 -1,-1.4 -0.3,-1.7 0.3,-1.6 1,-1.4 1.3,-0.9 1.7,-0.3 1.6,0.3 1.4,0.9 0.9,1.4 0.3,1.6 m 0,28.4 -0.3,1.6 -0.9,1.4 -1.4,0.9 -1.6,0.3 -1.7,-0.3 -1.3,-0.9 -1,-1.4 -0.3,-1.6 0.3,-1.6 1,-1.4 1.3,-0.9 1.7,-0.4 1.6,0.4 1.4,0.9 0.9,1.4 0.3,1.6 m 0,28.3 -0.3,1.7 -0.9,1.3 -1.4,1 -1.6,0.3 -1.7,-0.3 -1.3,-1 -1,-1.3 -0.3,-1.7 0.3,-1.6 1,-1.4 1.3,-0.9 1.7,-0.3 1.6,0.3 1.4,0.9 0.9,1.4 0.3,1.6 m 0,28.4 -0.3,1.6 -0.9,1.4 -1.4,0.9 -1.6,0.3 -1.7,-0.3 -1.3,-0.9 -1,-1.4 -0.3,-1.6 0.3,-1.6 1,-1.4 1.3,-0.9 1.7,-0.4 1.6,0.4 1.4,0.9 0.9,1.4 0.3,1.6 m 0,28.3 -0.3,1.7 -0.9,1.3 -1.4,1 -1.6,0.3 -1.7,-0.3 -1.3,-1 -1,-1.3 -0.3,-1.7 0.3,-1.6 1,-1.4 1.3,-0.9 1.7,-0.3 1.6,0.3 1.4,0.9 0.9,1.4 0.3,1.6 m 0,28.4 -0.3,1.6 -0.9,1.4 -1.4,0.9 -1.6,0.3 -1.7,-0.3 -1.3,-0.9 -1,-1.4 -0.3,-1.6 0.3,-1.7 1,-1.3 1.3,-1 1.7,-0.3 1.6,0.3 1.4,1 0.9,1.3 0.3,1.7 m 0,28.3 -0.3,1.7 -0.9,1.3 -1.4,1 -1.6,0.3 -1.7,-0.3 -1.3,-1 -1,-1.3 -0.3,-1.7 0.3,-1.6 1,-1.4 1.3,-0.9 1.7,-0.3 1.6,0.3 1.4,0.9 0.9,1.4 0.3,1.6 m 0,28.4 -0.3,1.6 -0.9,1.4 -1.4,0.9 -1.6,0.3 -1.7,-0.3 -1.3,-0.9 -1,-1.4 -0.3,-1.6 0.3,-1.7 1,-1.3 1.3,-1 1.7,-0.3 1.6,0.3 1.4,1 0.9,1.3 0.3,1.7 m 0,28.3 -0.3,1.6 -0.9,1.4 -1.4,0.9 -1.6,0.4 -1.7,-0.4 -1.3,-0.9 -1,-1.4 -0.3,-1.6 0.3,-1.6 1,-1.4 1.3,-0.9 1.7,-0.3 1.6,0.3 1.4,0.9 0.9,1.4 0.3,1.6 m 0,28.4 -0.3,1.6 -0.9,1.4 -1.4,0.9 -1.6,0.3 -1.7,-0.3 -1.3,-0.9 -1,-1.4 -0.3,-1.6 0.3,-1.7 1,-1.3 1.3,-1 1.7,-0.3 1.6,0.3 1.4,1 0.9,1.3 0.3,1.7 m 0,28.3 -0.3,1.6 -0.9,1.4 -1.4,0.9 -1.6,0.4 -1.7,-0.4 -1.3,-0.9 -1,-1.4 -0.3,-1.6 0.3,-1.6 1,-1.4 1.3,-0.9 1.7,-0.3 1.6,0.3 1.4,0.9 0.9,1.4 0.3,1.6 m 28.4,-453.5 -0.4,1.6 -0.9,1.4 -1.4,0.9 -1.6,0.3 -1.6,-0.3 -1.4,-0.9 -0.9,-1.4 -0.3,-1.6 0.3,-1.7 0.9,-1.3 1.4,-1 1.6,-0.3 1.6,0.3 1.4,1 0.9,1.3 0.4,1.7 m 0,28.3 -0.4,1.6 -0.9,1.4 -1.4,0.9 -1.6,0.4 -1.6,-0.4 -1.4,-0.9 -0.9,-1.4 -0.3,-1.6 0.3,-1.6 0.9,-1.4 1.4,-0.9 1.6,-0.3 1.6,0.3 1.4,0.9 0.9,1.4 0.4,1.6 m 0,28.4 -0.4,1.6 -0.9,1.4 -1.4,0.9 -1.6,0.3 -1.6,-0.3 -1.4,-0.9 -0.9,-1.4 -0.3,-1.6 0.3,-1.7 0.9,-1.3 1.4,-1 1.6,-0.3 1.6,0.3 1.4,1 0.9,1.3 0.4,1.7 m 0,28.3 -0.4,1.6 -0.9,1.4 -1.4,0.9 -1.6,0.4 -1.6,-0.4 -1.4,-0.9 -0.9,-1.4 -0.3,-1.6 0.3,-1.6 0.9,-1.4 1.4,-0.9 1.6,-0.3 1.6,0.3 1.4,0.9 0.9,1.4 0.4,1.6 m 0,28.4 -0.4,1.6 -0.9,1.4 -1.4,0.9 -1.6,0.3 -1.6,-0.3 -1.4,-0.9 -0.9,-1.4 -0.3,-1.6 0.3,-1.7 0.9,-1.4 1.4,-0.9 1.6,-0.3 1.6,0.3 1.4,0.9 0.9,1.4 0.4,1.7 m 0,28.3 -0.4,1.6 -0.9,1.4 -1.4,0.9 -1.6,0.4 -1.6,-0.4 -1.4,-0.9 -0.9,-1.4 -0.3,-1.6 0.3,-1.6 0.9,-1.4 1.4,-0.9 1.6,-0.4 1.6,0.4 1.4,0.9 0.9,1.4 0.4,1.6 m 0,28.3 -0.4,1.7 -0.9,1.4 -1.4,0.9 -1.6,0.3 -1.6,-0.3 -1.4,-0.9 -0.9,-1.4 -0.3,-1.7 0.3,-1.6 0.9,-1.4 1.4,-0.9 1.6,-0.3 1.6,0.3 1.4,0.9 0.9,1.4 0.4,1.6 m 0,28.4 -0.4,1.6 -0.9,1.4 -1.4,0.9 -1.6,0.3 -1.6,-0.3 -1.4,-0.9 -0.9,-1.4 -0.3,-1.6 0.3,-1.6 0.9,-1.4 1.4,-0.9 1.6,-0.4 1.6,0.4 1.4,0.9 0.9,1.4 0.4,1.6 m 0,28.3 -0.4,1.7 -0.9,1.3 -1.4,1 -1.6,0.3 -1.6,-0.3 -1.4,-1 -0.9,-1.3 -0.3,-1.7 0.3,-1.6 0.9,-1.4 1.4,-0.9 1.6,-0.3 1.6,0.3 1.4,0.9 0.9,1.4 0.4,1.6 m 0,28.4 -0.4,1.6 -0.9,1.4 -1.4,0.9 -1.6,0.3 -1.6,-0.3 -1.4,-0.9 -0.9,-1.4 -0.3,-1.6 0.3,-1.6 0.9,-1.4 1.4,-0.9 1.6,-0.4 1.6,0.4 1.4,0.9 0.9,1.4 0.4,1.6 m 0,28.3 -0.4,1.7 -0.9,1.3 -1.4,1 -1.6,0.3 -1.6,-0.3 -1.4,-1 -0.9,-1.3 -0.3,-1.7 0.3,-1.6 0.9,-1.4 1.4,-0.9 1.6,-0.3 1.6,0.3 1.4,0.9 0.9,1.4 0.4,1.6 m 0,28.4 -0.4,1.6 -0.9,1.4 -1.4,0.9 -1.6,0.3 -1.6,-0.3 -1.4,-0.9 -0.9,-1.4 -0.3,-1.6 0.3,-1.7 0.9,-1.3 1.4,-1 1.6,-0.3 1.6,0.3 1.4,1 0.9,1.3 0.4,1.7 m 0,28.3 -0.4,1.7 -0.9,1.3 -1.4,1 -1.6,0.3 -1.6,-0.3 -1.4,-1 -0.9,-1.3 -0.3,-1.7 0.3,-1.6 0.9,-1.4 1.4,-0.9 1.6,-0.3 1.6,0.3 1.4,0.9 0.9,1.4 0.4,1.6 m 0,28.4 -0.4,1.6 -0.9,1.4 -1.4,0.9 -1.6,0.3 -1.6,-0.3 -1.4,-0.9 -0.9,-1.4 -0.3,-1.6 0.3,-1.7 0.9,-1.3 1.4,-1 1.6,-0.3 1.6,0.3 1.4,1 0.9,1.3 0.4,1.7 m 0,28.3 -0.4,1.6 -0.9,1.4 -1.4,0.9 -1.6,0.4 -1.6,-0.4 -1.4,-0.9 -0.9,-1.4 -0.3,-1.6 0.3,-1.6 0.9,-1.4 1.4,-0.9 1.6,-0.3 1.6,0.3 1.4,0.9 0.9,1.4 0.4,1.6 m 0,28.4 -0.4,1.6 -0.9,1.4 -1.4,0.9 -1.6,0.3 -1.6,-0.3 -1.4,-0.9 -0.9,-1.4 -0.3,-1.6 0.3,-1.7 0.9,-1.3 1.4,-1 1.6,-0.3 1.6,0.3 1.4,1 0.9,1.3 0.4,1.7 m 0,28.3 -0.4,1.6 -0.9,1.4 -1.4,0.9 -1.6,0.4 -1.6,-0.4 -1.4,-0.9 -0.9,-1.4 -0.3,-1.6 0.3,-1.6 0.9,-1.4 1.4,-0.9 1.6,-0.3 1.6,0.3 1.4,0.9 0.9,1.4 0.4,1.6 m 28.3,-453.5 -0.3,1.6 -0.9,1.4 -1.4,0.9 -1.6,0.3 -1.7,-0.3 -1.3,-0.9 -1,-1.4 -0.3,-1.6 0.3,-1.7 1,-1.3 1.3,-1 1.7,-0.3 1.6,0.3 1.4,1 0.9,1.3 0.3,1.7 m 0,28.3 -0.3,1.6 -0.9,1.4 -1.4,0.9 -1.6,0.4 -1.7,-0.4 -1.3,-0.9 -1,-1.4 -0.3,-1.6 0.3,-1.6 1,-1.4 1.3,-0.9 1.7,-0.3 1.6,0.3 1.4,0.9 0.9,1.4 0.3,1.6 m 0,28.4 -0.3,1.6 -0.9,1.4 -1.4,0.9 -1.6,0.3 -1.7,-0.3 -1.3,-0.9 -1,-1.4 -0.3,-1.6 0.3,-1.7 1,-1.3 1.3,-1 1.7,-0.3 1.6,0.3 1.4,1 0.9,1.3 0.3,1.7 m 0,28.3 -0.3,1.6 -0.9,1.4 -1.4,0.9 -1.6,0.4 -1.7,-0.4 -1.3,-0.9 -1,-1.4 -0.3,-1.6 0.3,-1.6 1,-1.4 1.3,-0.9 1.7,-0.3 1.6,0.3 1.4,0.9 0.9,1.4 0.3,1.6 m 0,28.4 -0.3,1.6 -0.9,1.4 -1.4,0.9 -1.6,0.3 -1.7,-0.3 -1.3,-0.9 -1,-1.4 -0.3,-1.6 0.3,-1.7 1,-1.4 1.3,-0.9 1.7,-0.3 1.6,0.3 1.4,0.9 0.9,1.4 0.3,1.7 m 0,28.3 -0.3,1.6 -0.9,1.4 -1.4,0.9 -1.6,0.4 -1.7,-0.4 -1.3,-0.9 -1,-1.4 -0.3,-1.6 0.3,-1.6 1,-1.4 1.3,-0.9 1.7,-0.4 1.6,0.4 1.4,0.9 0.9,1.4 0.3,1.6 m 0,28.3 -0.3,1.7 -0.9,1.4 -1.4,0.9 -1.6,0.3 -1.7,-0.3 -1.3,-0.9 -1,-1.4 -0.3,-1.7 0.3,-1.6 1,-1.4 1.3,-0.9 1.7,-0.3 1.6,0.3 1.4,0.9 0.9,1.4 0.3,1.6 m 0,28.4 -0.3,1.6 -0.9,1.4 -1.4,0.9 -1.6,0.3 -1.7,-0.3 -1.3,-0.9 -1,-1.4 -0.3,-1.6 0.3,-1.6 1,-1.4 1.3,-0.9 1.7,-0.4 1.6,0.4 1.4,0.9 0.9,1.4 0.3,1.6 m 0,28.3 -0.3,1.7 -0.9,1.3 -1.4,1 -1.6,0.3 -1.7,-0.3 -1.3,-1 -1,-1.3 -0.3,-1.7 0.3,-1.6 1,-1.4 1.3,-0.9 1.7,-0.3 1.6,0.3 1.4,0.9 0.9,1.4 0.3,1.6 m 0,28.4 -0.3,1.6 -0.9,1.4 -1.4,0.9 -1.6,0.3 -1.7,-0.3 -1.3,-0.9 -1,-1.4 -0.3,-1.6 0.3,-1.6 1,-1.4 1.3,-0.9 1.7,-0.4 1.6,0.4 1.4,0.9 0.9,1.4 0.3,1.6 m 0,28.3 -0.3,1.7 -0.9,1.3 -1.4,1 -1.6,0.3 -1.7,-0.3 -1.3,-1 -1,-1.3 -0.3,-1.7 0.3,-1.6 1,-1.4 1.3,-0.9 1.7,-0.3 1.6,0.3 1.4,0.9 0.9,1.4 0.3,1.6 m 0,28.4 -0.3,1.6 -0.9,1.4 -1.4,0.9 -1.6,0.3 -1.7,-0.3 -1.3,-0.9 -1,-1.4 -0.3,-1.6 0.3,-1.7 1,-1.3 1.3,-1 1.7,-0.3 1.6,0.3 1.4,1 0.9,1.3 0.3,1.7 m 0,28.3 -0.3,1.7 -0.9,1.3 -1.4,1 -1.6,0.3 -1.7,-0.3 -1.3,-1 -1,-1.3 -0.3,-1.7 0.3,-1.6 1,-1.4 1.3,-0.9 1.7,-0.3 1.6,0.3 1.4,0.9 0.9,1.4 0.3,1.6 m 0,28.4 -0.3,1.6 -0.9,1.4 -1.4,0.9 -1.6,0.3 -1.7,-0.3 -1.3,-0.9 -1,-1.4 -0.3,-1.6 0.3,-1.7 1,-1.3 1.3,-1 1.7,-0.3 1.6,0.3 1.4,1 0.9,1.3 0.3,1.7 m 0,28.3 -0.3,1.6 -0.9,1.4 -1.4,0.9 -1.6,0.4 -1.7,-0.4 -1.3,-0.9 -1,-1.4 -0.3,-1.6 0.3,-1.6 1,-1.4 1.3,-0.9 1.7,-0.3 1.6,0.3 1.4,0.9 0.9,1.4 0.3,1.6 m 0,28.4 -0.3,1.6 -0.9,1.4 -1.4,0.9 -1.6,0.3 -1.7,-0.3 -1.3,-0.9 -1,-1.4 -0.3,-1.6 0.3,-1.7 1,-1.3 1.3,-1 1.7,-0.3 1.6,0.3 1.4,1 0.9,1.3 0.3,1.7 m 0,28.3 -0.3,1.6 -0.9,1.4 -1.4,0.9 -1.6,0.4 -1.7,-0.4 -1.3,-0.9 -1,-1.4 -0.3,-1.6 0.3,-1.6 1,-1.4 1.3,-0.9 1.7,-0.3 1.6,0.3 1.4,0.9 0.9,1.4 0.3,1.6 m 28.4,-453.5 -0.4,1.6 -0.9,1.4 -1.4,0.9 -1.6,0.3 -1.6,-0.3 -1.4,-0.9 -0.9,-1.4 -0.3,-1.6 0.3,-1.7 0.9,-1.3 1.4,-1 1.6,-0.3 1.6,0.3 1.4,1 0.9,1.3 0.4,1.7 m 0,28.3 -0.4,1.6 -0.9,1.4 -1.4,0.9 -1.6,0.4 -1.6,-0.4 -1.4,-0.9 -0.9,-1.4 -0.3,-1.6 0.3,-1.6 0.9,-1.4 1.4,-0.9 1.6,-0.3 1.6,0.3 1.4,0.9 0.9,1.4 0.4,1.6 m 0,28.4 -0.4,1.6 -0.9,1.4 -1.4,0.9 -1.6,0.3 -1.6,-0.3 -1.4,-0.9 -0.9,-1.4 -0.3,-1.6 0.3,-1.7 0.9,-1.3 1.4,-1 1.6,-0.3 1.6,0.3 1.4,1 0.9,1.3 0.4,1.7 m 0,28.3 -0.4,1.6 -0.9,1.4 -1.4,0.9 -1.6,0.4 -1.6,-0.4 -1.4,-0.9 -0.9,-1.4 -0.3,-1.6 0.3,-1.6 0.9,-1.4 1.4,-0.9 1.6,-0.3 1.6,0.3 1.4,0.9 0.9,1.4 0.4,1.6 m 0,28.4 -0.4,1.6 -0.9,1.4 -1.4,0.9 -1.6,0.3 -1.6,-0.3 -1.4,-0.9 -0.9,-1.4 -0.3,-1.6 0.3,-1.7 0.9,-1.4 1.4,-0.9 1.6,-0.3 1.6,0.3 1.4,0.9 0.9,1.4 0.4,1.7 m 0,28.3 -0.4,1.6 -0.9,1.4 -1.4,0.9 -1.6,0.4 -1.6,-0.4 -1.4,-0.9 -0.9,-1.4 -0.3,-1.6 0.3,-1.6 0.9,-1.4 1.4,-0.9 1.6,-0.4 1.6,0.4 1.4,0.9 0.9,1.4 0.4,1.6 m 0,28.3 -0.4,1.7 -0.9,1.4 -1.4,0.9 -1.6,0.3 -1.6,-0.3 -1.4,-0.9 -0.9,-1.4 -0.3,-1.7 0.3,-1.6 0.9,-1.4 1.4,-0.9 1.6,-0.3 1.6,0.3 1.4,0.9 0.9,1.4 0.4,1.6 m 0,28.4 -0.4,1.6 -0.9,1.4 -1.4,0.9 -1.6,0.3 -1.6,-0.3 -1.4,-0.9 -0.9,-1.4 -0.3,-1.6 0.3,-1.6 0.9,-1.4 1.4,-0.9 1.6,-0.4 1.6,0.4 1.4,0.9 0.9,1.4 0.4,1.6 m 0,28.3 -0.4,1.7 -0.9,1.3 -1.4,1 -1.6,0.3 -1.6,-0.3 -1.4,-1 -0.9,-1.3 -0.3,-1.7 0.3,-1.6 0.9,-1.4 1.4,-0.9 1.6,-0.3 1.6,0.3 1.4,0.9 0.9,1.4 0.4,1.6 m 0,28.4 -0.4,1.6 -0.9,1.4 -1.4,0.9 -1.6,0.3 -1.6,-0.3 -1.4,-0.9 -0.9,-1.4 -0.3,-1.6 0.3,-1.6 0.9,-1.4 1.4,-0.9 1.6,-0.4 1.6,0.4 1.4,0.9 0.9,1.4 0.4,1.6 m 0,28.3 -0.4,1.7 -0.9,1.3 -1.4,1 -1.6,0.3 -1.6,-0.3 -1.4,-1 -0.9,-1.3 -0.3,-1.7 0.3,-1.6 0.9,-1.4 1.4,-0.9 1.6,-0.3 1.6,0.3 1.4,0.9 0.9,1.4 0.4,1.6 m 0,28.4 -0.4,1.6 -0.9,1.4 -1.4,0.9 -1.6,0.3 -1.6,-0.3 -1.4,-0.9 -0.9,-1.4 -0.3,-1.6 0.3,-1.7 0.9,-1.3 1.4,-1 1.6,-0.3 1.6,0.3 1.4,1 0.9,1.3 0.4,1.7 m 0,28.3 -0.4,1.7 -0.9,1.3 -1.4,1 -1.6,0.3 -1.6,-0.3 -1.4,-1 -0.9,-1.3 -0.3,-1.7 0.3,-1.6 0.9,-1.4 1.4,-0.9 1.6,-0.3 1.6,0.3 1.4,0.9 0.9,1.4 0.4,1.6 m 0,28.4 -0.4,1.6 -0.9,1.4 -1.4,0.9 -1.6,0.3 -1.6,-0.3 -1.4,-0.9 -0.9,-1.4 -0.3,-1.6 0.3,-1.7 0.9,-1.3 1.4,-1 1.6,-0.3 1.6,0.3 1.4,1 0.9,1.3 0.4,1.7 m 0,28.3 -0.4,1.6 -0.9,1.4 -1.4,0.9 -1.6,0.4 -1.6,-0.4 -1.4,-0.9 -0.9,-1.4 -0.3,-1.6 0.3,-1.6 0.9,-1.4 1.4,-0.9 1.6,-0.3 1.6,0.3 1.4,0.9 0.9,1.4 0.4,1.6 m 0,28.4 -0.4,1.6 -0.9,1.4 -1.4,0.9 -1.6,0.3 -1.6,-0.3 -1.4,-0.9 -0.9,-1.4 -0.3,-1.6 0.3,-1.7 0.9,-1.3 1.4,-1 1.6,-0.3 1.6,0.3 1.4,1 0.9,1.3 0.4,1.7 m 0,28.3 -0.4,1.6 -0.9,1.4 -1.4,0.9 -1.6,0.4 -1.6,-0.4 -1.4,-0.9 -0.9,-1.4 -0.3,-1.6 0.3,-1.6 0.9,-1.4 1.4,-0.9 1.6,-0.3 1.6,0.3 1.4,0.9 0.9,1.4 0.4,1.6 m 28.3,-453.5 -0.3,1.6 -0.9,1.4 -1.4,0.9 -1.6,0.3 -1.7,-0.3 -1.4,-0.9 -0.9,-1.4 -0.3,-1.6 0.3,-1.7 0.9,-1.3 1.4,-1 1.7,-0.3 1.6,0.3 1.4,1 0.9,1.3 0.3,1.7 m 0,28.3 -0.3,1.6 -0.9,1.4 -1.4,0.9 -1.6,0.4 -1.7,-0.4 -1.4,-0.9 -0.9,-1.4 -0.3,-1.6 0.3,-1.6 0.9,-1.4 1.4,-0.9 1.7,-0.3 1.6,0.3 1.4,0.9 0.9,1.4 0.3,1.6 m 0,28.4 -0.3,1.6 -0.9,1.4 -1.4,0.9 -1.6,0.3 -1.7,-0.3 -1.4,-0.9 -0.9,-1.4 -0.3,-1.6 0.3,-1.7 0.9,-1.3 1.4,-1 1.7,-0.3 1.6,0.3 1.4,1 0.9,1.3 0.3,1.7 m 0,28.3 -0.3,1.6 -0.9,1.4 -1.4,0.9 -1.6,0.4 -1.7,-0.4 -1.4,-0.9 -0.9,-1.4 -0.3,-1.6 0.3,-1.6 0.9,-1.4 1.4,-0.9 1.7,-0.3 1.6,0.3 1.4,0.9 0.9,1.4 0.3,1.6 m 0,28.4 -0.3,1.6 -0.9,1.4 -1.4,0.9 -1.6,0.3 -1.7,-0.3 -1.4,-0.9 -0.9,-1.4 -0.3,-1.6 0.3,-1.7 0.9,-1.4 1.4,-0.9 1.7,-0.3 1.6,0.3 1.4,0.9 0.9,1.4 0.3,1.7 m 0,28.3 -0.3,1.6 -0.9,1.4 -1.4,0.9 -1.6,0.4 -1.7,-0.4 -1.4,-0.9 -0.9,-1.4 -0.3,-1.6 0.3,-1.6 0.9,-1.4 1.4,-0.9 1.7,-0.4 1.6,0.4 1.4,0.9 0.9,1.4 0.3,1.6 m 0,28.3 -0.3,1.7 -0.9,1.4 -1.4,0.9 -1.6,0.3 -1.7,-0.3 -1.4,-0.9 -0.9,-1.4 -0.3,-1.7 0.3,-1.6 0.9,-1.4 1.4,-0.9 1.7,-0.3 1.6,0.3 1.4,0.9 0.9,1.4 0.3,1.6 m 0,28.4 -0.3,1.6 -0.9,1.4 -1.4,0.9 -1.6,0.3 -1.7,-0.3 -1.4,-0.9 -0.9,-1.4 -0.3,-1.6 0.3,-1.6 0.9,-1.4 1.4,-0.9 1.7,-0.4 1.6,0.4 1.4,0.9 0.9,1.4 0.3,1.6 m 0,28.3 -0.3,1.7 -0.9,1.3 -1.4,1 -1.6,0.3 -1.7,-0.3 -1.4,-1 -0.9,-1.3 -0.3,-1.7 0.3,-1.6 0.9,-1.4 1.4,-0.9 1.7,-0.3 1.6,0.3 1.4,0.9 0.9,1.4 0.3,1.6 m 0,28.4 -0.3,1.6 -0.9,1.4 -1.4,0.9 -1.6,0.3 -1.7,-0.3 -1.4,-0.9 -0.9,-1.4 -0.3,-1.6 0.3,-1.6 0.9,-1.4 1.4,-0.9 1.7,-0.4 1.6,0.4 1.4,0.9 0.9,1.4 0.3,1.6 m 0,28.3 -0.3,1.7 -0.9,1.3 -1.4,1 -1.6,0.3 -1.7,-0.3 -1.4,-1 -0.9,-1.3 -0.3,-1.7 0.3,-1.6 0.9,-1.4 1.4,-0.9 1.7,-0.3 1.6,0.3 1.4,0.9 0.9,1.4 0.3,1.6 m 0,28.4 -0.3,1.6 -0.9,1.4 -1.4,0.9 -1.6,0.3 -1.7,-0.3 -1.4,-0.9 -0.9,-1.4 -0.3,-1.6 0.3,-1.7 0.9,-1.3 1.4,-1 1.7,-0.3 1.6,0.3 1.4,1 0.9,1.3 0.3,1.7 m 0,28.3 -0.3,1.7 -0.9,1.3 -1.4,1 -1.6,0.3 -1.7,-0.3 -1.4,-1 -0.9,-1.3 -0.3,-1.7 0.3,-1.6 0.9,-1.4 1.4,-0.9 1.7,-0.3 1.6,0.3 1.4,0.9 0.9,1.4 0.3,1.6 m 0,28.4 -0.3,1.6 -0.9,1.4 -1.4,0.9 -1.6,0.3 -1.7,-0.3 -1.4,-0.9 -0.9,-1.4 -0.3,-1.6 0.3,-1.7 0.9,-1.3 1.4,-1 1.7,-0.3 1.6,0.3 1.4,1 0.9,1.3 0.3,1.7 m 0,28.3 -0.3,1.6 -0.9,1.4 -1.4,0.9 -1.6,0.4 -1.7,-0.4 -1.4,-0.9 -0.9,-1.4 -0.3,-1.6 0.3,-1.6 0.9,-1.4 1.4,-0.9 1.7,-0.3 1.6,0.3 1.4,0.9 0.9,1.4 0.3,1.6 m 0,28.4 -0.3,1.6 -0.9,1.4 -1.4,0.9 -1.6,0.3 -1.7,-0.3 -1.4,-0.9 -0.9,-1.4 -0.3,-1.6 0.3,-1.7 0.9,-1.3 1.4,-1 1.7,-0.3 1.6,0.3 1.4,1 0.9,1.3 0.3,1.7 m 0,28.3 -0.3,1.6 -0.9,1.4 -1.4,0.9 -1.6,0.4 -1.7,-0.4 -1.4,-0.9 -0.9,-1.4 -0.3,-1.6 0.3,-1.6 0.9,-1.4 1.4,-0.9 1.7,-0.3 1.6,0.3 1.4,0.9 0.9,1.4 0.3,1.6 m 28.4,-453.5 -0.4,1.6 -0.9,1.4 -1.4,0.9 -1.6,0.3 -1.6,-0.3 -1.4,-0.9 -0.9,-1.4 -0.3,-1.6 0.3,-1.7 0.9,-1.3 1.4,-1 1.6,-0.3 1.6,0.3 1.4,1 0.9,1.3 0.4,1.7 m 0,28.3 -0.4,1.6 -0.9,1.4 -1.4,0.9 -1.6,0.4 -1.6,-0.4 -1.4,-0.9 -0.9,-1.4 -0.3,-1.6 0.3,-1.6 0.9,-1.4 1.4,-0.9 1.6,-0.3 1.6,0.3 1.4,0.9 0.9,1.4 0.4,1.6 m 0,28.4 -0.4,1.6 -0.9,1.4 -1.4,0.9 -1.6,0.3 -1.6,-0.3 -1.4,-0.9 -0.9,-1.4 -0.3,-1.6 0.3,-1.7 0.9,-1.3 1.4,-1 1.6,-0.3 1.6,0.3 1.4,1 0.9,1.3 0.4,1.7 m 0,28.3 -0.4,1.6 -0.9,1.4 -1.4,0.9 -1.6,0.4 -1.6,-0.4 -1.4,-0.9 -0.9,-1.4 -0.3,-1.6 0.3,-1.6 0.9,-1.4 1.4,-0.9 1.6,-0.3 1.6,0.3 1.4,0.9 0.9,1.4 0.4,1.6 m 0,28.4 -0.4,1.6 -0.9,1.4 -1.4,0.9 -1.6,0.3 -1.6,-0.3 -1.4,-0.9 -0.9,-1.4 -0.3,-1.6 0.3,-1.7 0.9,-1.4 1.4,-0.9 1.6,-0.3 1.6,0.3 1.4,0.9 0.9,1.4 0.4,1.7 m 0,28.3 -0.4,1.6 -0.9,1.4 -1.4,0.9 -1.6,0.4 -1.6,-0.4 -1.4,-0.9 -0.9,-1.4 -0.3,-1.6 0.3,-1.6 0.9,-1.4 1.4,-0.9 1.6,-0.4 1.6,0.4 1.4,0.9 0.9,1.4 0.4,1.6 m 0,28.3 -0.4,1.7 -0.9,1.4 -1.4,0.9 -1.6,0.3 -1.6,-0.3 -1.4,-0.9 -0.9,-1.4 -0.3,-1.7 0.3,-1.6 0.9,-1.4 1.4,-0.9 1.6,-0.3 1.6,0.3 1.4,0.9 0.9,1.4 0.4,1.6 m 0,28.4 -0.4,1.6 -0.9,1.4 -1.4,0.9 -1.6,0.3 -1.6,-0.3 -1.4,-0.9 -0.9,-1.4 -0.3,-1.6 0.3,-1.6 0.9,-1.4 1.4,-0.9 1.6,-0.4 1.6,0.4 1.4,0.9 0.9,1.4 0.4,1.6 m 0,28.3 -0.4,1.7 -0.9,1.3 -1.4,1 -1.6,0.3 -1.6,-0.3 -1.4,-1 -0.9,-1.3 -0.3,-1.7 0.3,-1.6 0.9,-1.4 1.4,-0.9 1.6,-0.3 1.6,0.3 1.4,0.9 0.9,1.4 0.4,1.6 m 0,28.4 -0.4,1.6 -0.9,1.4 -1.4,0.9 -1.6,0.3 -1.6,-0.3 -1.4,-0.9 -0.9,-1.4 -0.3,-1.6 0.3,-1.6 0.9,-1.4 1.4,-0.9 1.6,-0.4 1.6,0.4 1.4,0.9 0.9,1.4 0.4,1.6 m 0,28.3 -0.4,1.7 -0.9,1.3 -1.4,1 -1.6,0.3 -1.6,-0.3 -1.4,-1 -0.9,-1.3 -0.3,-1.7 0.3,-1.6 0.9,-1.4 1.4,-0.9 1.6,-0.3 1.6,0.3 1.4,0.9 0.9,1.4 0.4,1.6 m 0,28.4 -0.4,1.6 -0.9,1.4 -1.4,0.9 -1.6,0.3 -1.6,-0.3 -1.4,-0.9 -0.9,-1.4 -0.3,-1.6 0.3,-1.7 0.9,-1.3 1.4,-1 1.6,-0.3 1.6,0.3 1.4,1 0.9,1.3 0.4,1.7 m 0,28.3 -0.4,1.7 -0.9,1.3 -1.4,1 -1.6,0.3 -1.6,-0.3 -1.4,-1 -0.9,-1.3 -0.3,-1.7 0.3,-1.6 0.9,-1.4 1.4,-0.9 1.6,-0.3 1.6,0.3 1.4,0.9 0.9,1.4 0.4,1.6 m 0,28.4 -0.4,1.6 -0.9,1.4 -1.4,0.9 -1.6,0.3 -1.6,-0.3 -1.4,-0.9 -0.9,-1.4 -0.3,-1.6 0.3,-1.7 0.9,-1.3 1.4,-1 1.6,-0.3 1.6,0.3 1.4,1 0.9,1.3 0.4,1.7 m 0,28.3 -0.4,1.6 -0.9,1.4 -1.4,0.9 -1.6,0.4 -1.6,-0.4 -1.4,-0.9 -0.9,-1.4 -0.3,-1.6 0.3,-1.6 0.9,-1.4 1.4,-0.9 1.6,-0.3 1.6,0.3 1.4,0.9 0.9,1.4 0.4,1.6 m 0,28.4 -0.4,1.6 -0.9,1.4 -1.4,0.9 -1.6,0.3 -1.6,-0.3 -1.4,-0.9 -0.9,-1.4 -0.3,-1.6 0.3,-1.7 0.9,-1.3 1.4,-1 1.6,-0.3 1.6,0.3 1.4,1 0.9,1.3 0.4,1.7 m 0,28.3 -0.4,1.6 -0.9,1.4 -1.4,0.9 -1.6,0.4 -1.6,-0.4 -1.4,-0.9 -0.9,-1.4 -0.3,-1.6 0.3,-1.6 0.9,-1.4 1.4,-0.9 1.6,-0.3 1.6,0.3 1.4,0.9 0.9,1.4 0.4,1.6 m 28.3,-453.5 -0.3,1.6 -0.9,1.4 -1.4,0.9 -1.7,0.3 -1.6,-0.3 -1.4,-0.9 -0.9,-1.4 -0.3,-1.6 0.3,-1.7 0.9,-1.3 1.4,-1 1.6,-0.3 1.7,0.3 1.4,1 0.9,1.3 0.3,1.7 m 0,28.3 -0.3,1.6 -0.9,1.4 -1.4,0.9 -1.7,0.4 -1.6,-0.4 -1.4,-0.9 -0.9,-1.4 -0.3,-1.6 0.3,-1.6 0.9,-1.4 1.4,-0.9 1.6,-0.3 1.7,0.3 1.4,0.9 0.9,1.4 0.3,1.6 m 0,28.4 -0.3,1.6 -0.9,1.4 -1.4,0.9 -1.7,0.3 -1.6,-0.3 -1.4,-0.9 -0.9,-1.4 -0.3,-1.6 0.3,-1.7 0.9,-1.3 1.4,-1 1.6,-0.3 1.7,0.3 1.4,1 0.9,1.3 0.3,1.7 m 0,28.3 -0.3,1.6 -0.9,1.4 -1.4,0.9 -1.7,0.4 -1.6,-0.4 -1.4,-0.9 -0.9,-1.4 -0.3,-1.6 0.3,-1.6 0.9,-1.4 1.4,-0.9 1.6,-0.3 1.7,0.3 1.4,0.9 0.9,1.4 0.3,1.6 m 0,28.4 -0.3,1.6 -0.9,1.4 -1.4,0.9 -1.7,0.3 -1.6,-0.3 -1.4,-0.9 -0.9,-1.4 -0.3,-1.6 0.3,-1.7 0.9,-1.4 1.4,-0.9 1.6,-0.3 1.7,0.3 1.4,0.9 0.9,1.4 0.3,1.7 m 0,28.3 -0.3,1.6 -0.9,1.4 -1.4,0.9 -1.7,0.4 -1.6,-0.4 -1.4,-0.9 -0.9,-1.4 -0.3,-1.6 0.3,-1.6 0.9,-1.4 1.4,-0.9 1.6,-0.4 1.7,0.4 1.4,0.9 0.9,1.4 0.3,1.6 m 0,28.3 -0.3,1.7 -0.9,1.4 -1.4,0.9 -1.7,0.3 -1.6,-0.3 -1.4,-0.9 -0.9,-1.4 -0.3,-1.7 0.3,-1.6 0.9,-1.4 1.4,-0.9 1.6,-0.3 1.7,0.3 1.4,0.9 0.9,1.4 0.3,1.6 m 0,28.4 -0.3,1.6 -0.9,1.4 -1.4,0.9 -1.7,0.3 -1.6,-0.3 -1.4,-0.9 -0.9,-1.4 -0.3,-1.6 0.3,-1.6 0.9,-1.4 1.4,-0.9 1.6,-0.4 1.7,0.4 1.4,0.9 0.9,1.4 0.3,1.6 m 0,28.3 -0.3,1.7 -0.9,1.3 -1.4,1 -1.7,0.3 -1.6,-0.3 -1.4,-1 -0.9,-1.3 -0.3,-1.7 0.3,-1.6 0.9,-1.4 1.4,-0.9 1.6,-0.3 1.7,0.3 1.4,0.9 0.9,1.4 0.3,1.6 m 0,28.4 -0.3,1.6 -0.9,1.4 -1.4,0.9 -1.7,0.3 -1.6,-0.3 -1.4,-0.9 -0.9,-1.4 -0.3,-1.6 0.3,-1.6 0.9,-1.4 1.4,-0.9 1.6,-0.4 1.7,0.4 1.4,0.9 0.9,1.4 0.3,1.6 m 0,28.3 -0.3,1.7 -0.9,1.3 -1.4,1 -1.7,0.3 -1.6,-0.3 -1.4,-1 -0.9,-1.3 -0.3,-1.7 0.3,-1.6 0.9,-1.4 1.4,-0.9 1.6,-0.3 1.7,0.3 1.4,0.9 0.9,1.4 0.3,1.6 m 0,28.4 -0.3,1.6 -0.9,1.4 -1.4,0.9 -1.7,0.3 -1.6,-0.3 -1.4,-0.9 -0.9,-1.4 -0.3,-1.6 0.3,-1.7 0.9,-1.3 1.4,-1 1.6,-0.3 1.7,0.3 1.4,1 0.9,1.3 0.3,1.7 m 0,28.3 -0.3,1.7 -0.9,1.3 -1.4,1 -1.7,0.3 -1.6,-0.3 -1.4,-1 -0.9,-1.3 -0.3,-1.7 0.3,-1.6 0.9,-1.4 1.4,-0.9 1.6,-0.3 1.7,0.3 1.4,0.9 0.9,1.4 0.3,1.6 m 0,28.4 -0.3,1.6 -0.9,1.4 -1.4,0.9 -1.7,0.3 -1.6,-0.3 -1.4,-0.9 -0.9,-1.4 -0.3,-1.6 0.3,-1.7 0.9,-1.3 1.4,-1 1.6,-0.3 1.7,0.3 1.4,1 0.9,1.3 0.3,1.7 m 0,28.3 -0.3,1.6 -0.9,1.4 -1.4,0.9 -1.7,0.4 -1.6,-0.4 -1.4,-0.9 -0.9,-1.4 -0.3,-1.6 0.3,-1.6 0.9,-1.4 1.4,-0.9 1.6,-0.3 1.7,0.3 1.4,0.9 0.9,1.4 0.3,1.6 m 0,28.4 -0.3,1.6 -0.9,1.4 -1.4,0.9 -1.7,0.3 -1.6,-0.3 -1.4,-0.9 -0.9,-1.4 -0.3,-1.6 0.3,-1.7 0.9,-1.3 1.4,-1 1.6,-0.3 1.7,0.3 1.4,1 0.9,1.3 0.3,1.7 m 0,28.3 -0.3,1.6 -0.9,1.4 -1.4,0.9 -1.7,0.4 -1.6,-0.4 -1.4,-0.9 -0.9,-1.4 -0.3,-1.6 0.3,-1.6 0.9,-1.4 1.4,-0.9 1.6,-0.3 1.7,0.3 1.4,0.9 0.9,1.4 0.3,1.6 m 28.3,-453.5 -0.3,1.6 -0.9,1.4 -1.4,0.9 -1.6,0.3 -1.6,-0.3 -1.4,-0.9 -0.9,-1.4 -0.4,-1.6 0.4,-1.7 0.9,-1.3 1.4,-1 1.6,-0.3 1.6,0.3 1.4,1 0.9,1.3 0.3,1.7 m 0,28.3 -0.3,1.6 -0.9,1.4 -1.4,0.9 -1.6,0.4 -1.6,-0.4 -1.4,-0.9 -0.9,-1.4 -0.4,-1.6 0.4,-1.6 0.9,-1.4 1.4,-0.9 1.6,-0.3 1.6,0.3 1.4,0.9 0.9,1.4 0.3,1.6 m 0,28.4 -0.3,1.6 -0.9,1.4 -1.4,0.9 -1.6,0.3 -1.6,-0.3 -1.4,-0.9 -0.9,-1.4 -0.4,-1.6 0.4,-1.7 0.9,-1.3 1.4,-1 1.6,-0.3 1.6,0.3 1.4,1 0.9,1.3 0.3,1.7 m 0,28.3 -0.3,1.6 -0.9,1.4 -1.4,0.9 -1.6,0.4 -1.6,-0.4 -1.4,-0.9 -0.9,-1.4 -0.4,-1.6 0.4,-1.6 0.9,-1.4 1.4,-0.9 1.6,-0.3 1.6,0.3 1.4,0.9 0.9,1.4 0.3,1.6 m 0,28.4 -0.3,1.6 -0.9,1.4 -1.4,0.9 -1.6,0.3 -1.6,-0.3 -1.4,-0.9 -0.9,-1.4 -0.4,-1.6 0.4,-1.7 0.9,-1.4 1.4,-0.9 1.6,-0.3 1.6,0.3 1.4,0.9 0.9,1.4 0.3,1.7 m 0,28.3 -0.3,1.6 -0.9,1.4 -1.4,0.9 -1.6,0.4 -1.6,-0.4 -1.4,-0.9 -0.9,-1.4 -0.4,-1.6 0.4,-1.6 0.9,-1.4 1.4,-0.9 1.6,-0.4 1.6,0.4 1.4,0.9 0.9,1.4 0.3,1.6 m 0,28.3 -0.3,1.7 -0.9,1.4 -1.4,0.9 -1.6,0.3 -1.6,-0.3 -1.4,-0.9 -0.9,-1.4 -0.4,-1.7 0.4,-1.6 0.9,-1.4 1.4,-0.9 1.6,-0.3 1.6,0.3 1.4,0.9 0.9,1.4 0.3,1.6 m 0,28.4 -0.3,1.6 -0.9,1.4 -1.4,0.9 -1.6,0.3 -1.6,-0.3 -1.4,-0.9 -0.9,-1.4 -0.4,-1.6 0.4,-1.6 0.9,-1.4 1.4,-0.9 1.6,-0.4 1.6,0.4 1.4,0.9 0.9,1.4 0.3,1.6 m 0,28.3 -0.3,1.7 -0.9,1.3 -1.4,1 -1.6,0.3 -1.6,-0.3 -1.4,-1 -0.9,-1.3 -0.4,-1.7 0.4,-1.6 0.9,-1.4 1.4,-0.9 1.6,-0.3 1.6,0.3 1.4,0.9 0.9,1.4 0.3,1.6 m 0,28.4 -0.3,1.6 -0.9,1.4 -1.4,0.9 -1.6,0.3 -1.6,-0.3 -1.4,-0.9 -0.9,-1.4 -0.4,-1.6 0.4,-1.6 0.9,-1.4 1.4,-0.9 1.6,-0.4 1.6,0.4 1.4,0.9 0.9,1.4 0.3,1.6 m 0,28.3 -0.3,1.7 -0.9,1.3 -1.4,1 -1.6,0.3 -1.6,-0.3 -1.4,-1 -0.9,-1.3 -0.4,-1.7 0.4,-1.6 0.9,-1.4 1.4,-0.9 1.6,-0.3 1.6,0.3 1.4,0.9 0.9,1.4 0.3,1.6 m 0,28.4 -0.3,1.6 -0.9,1.4 -1.4,0.9 -1.6,0.3 -1.6,-0.3 -1.4,-0.9 -0.9,-1.4 -0.4,-1.6 0.4,-1.7 0.9,-1.3 1.4,-1 1.6,-0.3 1.6,0.3 1.4,1 0.9,1.3 0.3,1.7 m 0,28.3 -0.3,1.7 -0.9,1.3 -1.4,1 -1.6,0.3 -1.6,-0.3 -1.4,-1 -0.9,-1.3 -0.4,-1.7 0.4,-1.6 0.9,-1.4 1.4,-0.9 1.6,-0.3 1.6,0.3 1.4,0.9 0.9,1.4 0.3,1.6 m 0,28.4 -0.3,1.6 -0.9,1.4 -1.4,0.9 -1.6,0.3 -1.6,-0.3 -1.4,-0.9 -0.9,-1.4 -0.4,-1.6 0.4,-1.7 0.9,-1.3 1.4,-1 1.6,-0.3 1.6,0.3 1.4,1 0.9,1.3 0.3,1.7 m 0,28.3 -0.3,1.6 -0.9,1.4 -1.4,0.9 -1.6,0.4 -1.6,-0.4 -1.4,-0.9 -0.9,-1.4 -0.4,-1.6 0.4,-1.6 0.9,-1.4 1.4,-0.9 1.6,-0.3 1.6,0.3 1.4,0.9 0.9,1.4 0.3,1.6 m 0,28.4 -0.3,1.6 -0.9,1.4 -1.4,0.9 -1.6,0.3 -1.6,-0.3 -1.4,-0.9 -0.9,-1.4 -0.4,-1.6 0.4,-1.7 0.9,-1.3 1.4,-1 1.6,-0.3 1.6,0.3 1.4,1 0.9,1.3 0.3,1.7 m 0,28.3 -0.3,1.6 -0.9,1.4 -1.4,0.9 -1.6,0.4 -1.6,-0.4 -1.4,-0.9 -0.9,-1.4 -0.4,-1.6 0.4,-1.6 0.9,-1.4 1.4,-0.9 1.6,-0.3 1.6,0.3 1.4,0.9 0.9,1.4 0.3,1.6 m 28.4,-453.5 -0.3,1.6 -1,1.4 -1.3,0.9 -1.7,0.3 -1.6,-0.3 -1.4,-0.9 -0.9,-1.4 -0.3,-1.6 0.3,-1.7 0.9,-1.3 1.4,-1 1.6,-0.3 1.7,0.3 1.3,1 1,1.3 0.3,1.7 m 0,28.3 -0.3,1.6 -1,1.4 -1.3,0.9 -1.7,0.4 -1.6,-0.4 -1.4,-0.9 -0.9,-1.4 -0.3,-1.6 0.3,-1.6 0.9,-1.4 1.4,-0.9 1.6,-0.3 1.7,0.3 1.3,0.9 1,1.4 0.3,1.6 m 0,28.4 -0.3,1.6 -1,1.4 -1.3,0.9 -1.7,0.3 -1.6,-0.3 -1.4,-0.9 -0.9,-1.4 -0.3,-1.6 0.3,-1.7 0.9,-1.3 1.4,-1 1.6,-0.3 1.7,0.3 1.3,1 1,1.3 0.3,1.7 m 0,28.3 -0.3,1.6 -1,1.4 -1.3,0.9 -1.7,0.4 -1.6,-0.4 -1.4,-0.9 -0.9,-1.4 -0.3,-1.6 0.3,-1.6 0.9,-1.4 1.4,-0.9 1.6,-0.3 1.7,0.3 1.3,0.9 1,1.4 0.3,1.6 m 0,28.4 -0.3,1.6 -1,1.4 -1.3,0.9 -1.7,0.3 -1.6,-0.3 -1.4,-0.9 -0.9,-1.4 -0.3,-1.6 0.3,-1.7 0.9,-1.4 1.4,-0.9 1.6,-0.3 1.7,0.3 1.3,0.9 1,1.4 0.3,1.7 m 0,28.3 -0.3,1.6 -1,1.4 -1.3,0.9 -1.7,0.4 -1.6,-0.4 -1.4,-0.9 -0.9,-1.4 -0.3,-1.6 0.3,-1.6 0.9,-1.4 1.4,-0.9 1.6,-0.4 1.7,0.4 1.3,0.9 1,1.4 0.3,1.6 m 0,28.3 -0.3,1.7 -1,1.4 -1.3,0.9 -1.7,0.3 -1.6,-0.3 -1.4,-0.9 -0.9,-1.4 -0.3,-1.7 0.3,-1.6 0.9,-1.4 1.4,-0.9 1.6,-0.3 1.7,0.3 1.3,0.9 1,1.4 0.3,1.6 m 0,28.4 -0.3,1.6 -1,1.4 -1.3,0.9 -1.7,0.3 -1.6,-0.3 -1.4,-0.9 -0.9,-1.4 -0.3,-1.6 0.3,-1.6 0.9,-1.4 1.4,-0.9 1.6,-0.4 1.7,0.4 1.3,0.9 1,1.4 0.3,1.6 m 0,28.3 -0.3,1.7 -1,1.3 -1.3,1 -1.7,0.3 -1.6,-0.3 -1.4,-1 -0.9,-1.3 -0.3,-1.7 0.3,-1.6 0.9,-1.4 1.4,-0.9 1.6,-0.3 1.7,0.3 1.3,0.9 1,1.4 0.3,1.6 m 0,28.4 -0.3,1.6 -1,1.4 -1.3,0.9 -1.7,0.3 -1.6,-0.3 -1.4,-0.9 -0.9,-1.4 -0.3,-1.6 0.3,-1.6 0.9,-1.4 1.4,-0.9 1.6,-0.4 1.7,0.4 1.3,0.9 1,1.4 0.3,1.6 m 0,28.3 -0.3,1.7 -1,1.3 -1.3,1 -1.7,0.3 -1.6,-0.3 -1.4,-1 -0.9,-1.3 -0.3,-1.7 0.3,-1.6 0.9,-1.4 1.4,-0.9 1.6,-0.3 1.7,0.3 1.3,0.9 1,1.4 0.3,1.6 m 0,28.4 -0.3,1.6 -1,1.4 -1.3,0.9 -1.7,0.3 -1.6,-0.3 -1.4,-0.9 -0.9,-1.4 -0.3,-1.6 0.3,-1.7 0.9,-1.3 1.4,-1 1.6,-0.3 1.7,0.3 1.3,1 1,1.3 0.3,1.7 m 0,28.3 -0.3,1.7 -1,1.3 -1.3,1 -1.7,0.3 -1.6,-0.3 -1.4,-1 -0.9,-1.3 -0.3,-1.7 0.3,-1.6 0.9,-1.4 1.4,-0.9 1.6,-0.3 1.7,0.3 1.3,0.9 1,1.4 0.3,1.6 m 0,28.4 -0.3,1.6 -1,1.4 -1.3,0.9 -1.7,0.3 -1.6,-0.3 -1.4,-0.9 -0.9,-1.4 -0.3,-1.6 0.3,-1.7 0.9,-1.3 1.4,-1 1.6,-0.3 1.7,0.3 1.3,1 1,1.3 0.3,1.7 m 0,28.3 -0.3,1.6 -1,1.4 -1.3,0.9 -1.7,0.4 -1.6,-0.4 -1.4,-0.9 -0.9,-1.4 -0.3,-1.6 0.3,-1.6 0.9,-1.4 1.4,-0.9 1.6,-0.3 1.7,0.3 1.3,0.9 1,1.4 0.3,1.6 m 0,28.4 -0.3,1.6 -1,1.4 -1.3,0.9 -1.7,0.3 -1.6,-0.3 -1.4,-0.9 -0.9,-1.4 -0.3,-1.6 0.3,-1.7 0.9,-1.3 1.4,-1 1.6,-0.3 1.7,0.3 1.3,1 1,1.3 0.3,1.7 m 0,28.3 -0.3,1.6 -1,1.4 -1.3,0.9 -1.7,0.4 -1.6,-0.4 -1.4,-0.9 -0.9,-1.4 -0.3,-1.6 0.3,-1.6 0.9,-1.4 1.4,-0.9 1.6,-0.3 1.7,0.3 1.3,0.9 1,1.4 0.3,1.6 m 28.3,-453.5 -0.3,1.6 -0.9,1.4 -1.4,0.9 -1.6,0.3 -1.6,-0.3 -1.4,-0.9 -0.9,-1.4 -0.4,-1.6 0.4,-1.7 0.9,-1.3 1.4,-1 1.6,-0.3 1.6,0.3 1.4,1 0.9,1.3 0.3,1.7 m 0,28.3 -0.3,1.6 -0.9,1.4 -1.4,0.9 -1.6,0.4 -1.6,-0.4 -1.4,-0.9 -0.9,-1.4 -0.4,-1.6 0.4,-1.6 0.9,-1.4 1.4,-0.9 1.6,-0.3 1.6,0.3 1.4,0.9 0.9,1.4 0.3,1.6 m 0,28.4 -0.3,1.6 -0.9,1.4 -1.4,0.9 -1.6,0.3 -1.6,-0.3 -1.4,-0.9 -0.9,-1.4 -0.4,-1.6 0.4,-1.7 0.9,-1.3 1.4,-1 1.6,-0.3 1.6,0.3 1.4,1 0.9,1.3 0.3,1.7 m 0,28.3 -0.3,1.6 -0.9,1.4 -1.4,0.9 -1.6,0.4 -1.6,-0.4 -1.4,-0.9 -0.9,-1.4 -0.4,-1.6 0.4,-1.6 0.9,-1.4 1.4,-0.9 1.6,-0.3 1.6,0.3 1.4,0.9 0.9,1.4 0.3,1.6 m 0,28.4 -0.3,1.6 -0.9,1.4 -1.4,0.9 -1.6,0.3 -1.6,-0.3 -1.4,-0.9 -0.9,-1.4 -0.4,-1.6 0.4,-1.7 0.9,-1.4 1.4,-0.9 1.6,-0.3 1.6,0.3 1.4,0.9 0.9,1.4 0.3,1.7 m 0,28.3 -0.3,1.6 -0.9,1.4 -1.4,0.9 -1.6,0.4 -1.6,-0.4 -1.4,-0.9 -0.9,-1.4 -0.4,-1.6 0.4,-1.6 0.9,-1.4 1.4,-0.9 1.6,-0.4 1.6,0.4 1.4,0.9 0.9,1.4 0.3,1.6 m 0,28.3 -0.3,1.7 -0.9,1.4 -1.4,0.9 -1.6,0.3 -1.6,-0.3 -1.4,-0.9 -0.9,-1.4 -0.4,-1.7 0.4,-1.6 0.9,-1.4 1.4,-0.9 1.6,-0.3 1.6,0.3 1.4,0.9 0.9,1.4 0.3,1.6 m 0,28.4 -0.3,1.6 -0.9,1.4 -1.4,0.9 -1.6,0.3 -1.6,-0.3 -1.4,-0.9 -0.9,-1.4 -0.4,-1.6 0.4,-1.6 0.9,-1.4 1.4,-0.9 1.6,-0.4 1.6,0.4 1.4,0.9 0.9,1.4 0.3,1.6 m 0,28.3 -0.3,1.7 -0.9,1.3 -1.4,1 -1.6,0.3 -1.6,-0.3 -1.4,-1 -0.9,-1.3 -0.4,-1.7 0.4,-1.6 0.9,-1.4 1.4,-0.9 1.6,-0.3 1.6,0.3 1.4,0.9 0.9,1.4 0.3,1.6 m 0,28.4 -0.3,1.6 -0.9,1.4 -1.4,0.9 -1.6,0.3 -1.6,-0.3 -1.4,-0.9 -0.9,-1.4 -0.4,-1.6 0.4,-1.6 0.9,-1.4 1.4,-0.9 1.6,-0.4 1.6,0.4 1.4,0.9 0.9,1.4 0.3,1.6 m 0,28.3 -0.3,1.7 -0.9,1.3 -1.4,1 -1.6,0.3 -1.6,-0.3 -1.4,-1 -0.9,-1.3 -0.4,-1.7 0.4,-1.6 0.9,-1.4 1.4,-0.9 1.6,-0.3 1.6,0.3 1.4,0.9 0.9,1.4 0.3,1.6 m 0,28.4 -0.3,1.6 -0.9,1.4 -1.4,0.9 -1.6,0.3 -1.6,-0.3 -1.4,-0.9 -0.9,-1.4 -0.4,-1.6 0.4,-1.7 0.9,-1.3 1.4,-1 1.6,-0.3 1.6,0.3 1.4,1 0.9,1.3 0.3,1.7 m 0,28.3 -0.3,1.7 -0.9,1.3 -1.4,1 -1.6,0.3 -1.6,-0.3 -1.4,-1 -0.9,-1.3 -0.4,-1.7 0.4,-1.6 0.9,-1.4 1.4,-0.9 1.6,-0.3 1.6,0.3 1.4,0.9 0.9,1.4 0.3,1.6 m 0,28.4 -0.3,1.6 -0.9,1.4 -1.4,0.9 -1.6,0.3 -1.6,-0.3 -1.4,-0.9 -0.9,-1.4 -0.4,-1.6 0.4,-1.7 0.9,-1.3 1.4,-1 1.6,-0.3 1.6,0.3 1.4,1 0.9,1.3 0.3,1.7 m 0,28.3 -0.3,1.6 -0.9,1.4 -1.4,0.9 -1.6,0.4 -1.6,-0.4 -1.4,-0.9 -0.9,-1.4 -0.4,-1.6 0.4,-1.6 0.9,-1.4 1.4,-0.9 1.6,-0.3 1.6,0.3 1.4,0.9 0.9,1.4 0.3,1.6 m 0,28.4 -0.3,1.6 -0.9,1.4 -1.4,0.9 -1.6,0.3 -1.6,-0.3 -1.4,-0.9 -0.9,-1.4 -0.4,-1.6 0.4,-1.7 0.9,-1.3 1.4,-1 1.6,-0.3 1.6,0.3 1.4,1 0.9,1.3 0.3,1.7 m 0,28.3 -0.3,1.6 -0.9,1.4 -1.4,0.9 -1.6,0.4 -1.6,-0.4 -1.4,-0.9 -0.9,-1.4 -0.4,-1.6 0.4,-1.6 0.9,-1.4 1.4,-0.9 1.6,-0.3 1.6,0.3 1.4,0.9 0.9,1.4 0.3,1.6 m 28.4,-453.5 -0.3,1.6 -1,1.4 -1.3,0.9 -1.7,0.3 -1.6,-0.3 -1.4,-0.9 -0.9,-1.4 -0.3,-1.6 0.3,-1.7 0.9,-1.3 1.4,-1 1.6,-0.3 1.7,0.3 1.3,1 1,1.3 0.3,1.7 m 0,28.3 -0.3,1.6 -1,1.4 -1.3,0.9 -1.7,0.4 -1.6,-0.4 -1.4,-0.9 -0.9,-1.4 -0.3,-1.6 0.3,-1.6 0.9,-1.4 1.4,-0.9 1.6,-0.3 1.7,0.3 1.3,0.9 1,1.4 0.3,1.6 m 0,28.4 -0.3,1.6 -1,1.4 -1.3,0.9 -1.7,0.3 -1.6,-0.3 -1.4,-0.9 -0.9,-1.4 -0.3,-1.6 0.3,-1.7 0.9,-1.3 1.4,-1 1.6,-0.3 1.7,0.3 1.3,1 1,1.3 0.3,1.7 m 0,28.3 -0.3,1.6 -1,1.4 -1.3,0.9 -1.7,0.4 -1.6,-0.4 -1.4,-0.9 -0.9,-1.4 -0.3,-1.6 0.3,-1.6 0.9,-1.4 1.4,-0.9 1.6,-0.3 1.7,0.3 1.3,0.9 1,1.4 0.3,1.6 m 0,28.4 -0.3,1.6 -1,1.4 -1.3,0.9 -1.7,0.3 -1.6,-0.3 -1.4,-0.9 -0.9,-1.4 -0.3,-1.6 0.3,-1.7 0.9,-1.4 1.4,-0.9 1.6,-0.3 1.7,0.3 1.3,0.9 1,1.4 0.3,1.7 m 0,28.3 -0.3,1.6 -1,1.4 -1.3,0.9 -1.7,0.4 -1.6,-0.4 -1.4,-0.9 -0.9,-1.4 -0.3,-1.6 0.3,-1.6 0.9,-1.4 1.4,-0.9 1.6,-0.4 1.7,0.4 1.3,0.9 1,1.4 0.3,1.6 m 0,28.3 -0.3,1.7 -1,1.4 -1.3,0.9 -1.7,0.3 -1.6,-0.3 -1.4,-0.9 -0.9,-1.4 -0.3,-1.7 0.3,-1.6 0.9,-1.4 1.4,-0.9 1.6,-0.3 1.7,0.3 1.3,0.9 1,1.4 0.3,1.6 m 0,28.4 -0.3,1.6 -1,1.4 -1.3,0.9 -1.7,0.3 -1.6,-0.3 -1.4,-0.9 -0.9,-1.4 -0.3,-1.6 0.3,-1.6 0.9,-1.4 1.4,-0.9 1.6,-0.4 1.7,0.4 1.3,0.9 1,1.4 0.3,1.6 m 0,28.3 -0.3,1.7 -1,1.3 -1.3,1 -1.7,0.3 -1.6,-0.3 -1.4,-1 -0.9,-1.3 -0.3,-1.7 0.3,-1.6 0.9,-1.4 1.4,-0.9 1.6,-0.3 1.7,0.3 1.3,0.9 1,1.4 0.3,1.6 m 0,28.4 -0.3,1.6 -1,1.4 -1.3,0.9 -1.7,0.3 -1.6,-0.3 -1.4,-0.9 -0.9,-1.4 -0.3,-1.6 0.3,-1.6 0.9,-1.4 1.4,-0.9 1.6,-0.4 1.7,0.4 1.3,0.9 1,1.4 0.3,1.6 m 0,28.3 -0.3,1.7 -1,1.3 -1.3,1 -1.7,0.3 -1.6,-0.3 -1.4,-1 -0.9,-1.3 -0.3,-1.7 0.3,-1.6 0.9,-1.4 1.4,-0.9 1.6,-0.3 1.7,0.3 1.3,0.9 1,1.4 0.3,1.6 m 0,28.4 -0.3,1.6 -1,1.4 -1.3,0.9 -1.7,0.3 -1.6,-0.3 -1.4,-0.9 -0.9,-1.4 -0.3,-1.6 0.3,-1.7 0.9,-1.3 1.4,-1 1.6,-0.3 1.7,0.3 1.3,1 1,1.3 0.3,1.7 m 0,28.3 -0.3,1.7 -1,1.3 -1.3,1 -1.7,0.3 -1.6,-0.3 -1.4,-1 -0.9,-1.3 -0.3,-1.7 0.3,-1.6 0.9,-1.4 1.4,-0.9 1.6,-0.3 1.7,0.3 1.3,0.9 1,1.4 0.3,1.6 m 0,28.4 -0.3,1.6 -1,1.4 -1.3,0.9 -1.7,0.3 -1.6,-0.3 -1.4,-0.9 -0.9,-1.4 -0.3,-1.6 0.3,-1.7 0.9,-1.3 1.4,-1 1.6,-0.3 1.7,0.3 1.3,1 1,1.3 0.3,1.7 m 0,28.3 -0.3,1.6 -1,1.4 -1.3,0.9 -1.7,0.4 -1.6,-0.4 -1.4,-0.9 -0.9,-1.4 -0.3,-1.6 0.3,-1.6 0.9,-1.4 1.4,-0.9 1.6,-0.3 1.7,0.3 1.3,0.9 1,1.4 0.3,1.6 m 0,28.4 -0.3,1.6 -1,1.4 -1.3,0.9 -1.7,0.3 -1.6,-0.3 -1.4,-0.9 -0.9,-1.4 -0.3,-1.6 0.3,-1.7 0.9,-1.3 1.4,-1 1.6,-0.3 1.7,0.3 1.3,1 1,1.3 0.3,1.7 m 0,28.3 -0.3,1.6 -1,1.4 -1.3,0.9 -1.7,0.4 -1.6,-0.4 -1.4,-0.9 -0.9,-1.4 -0.3,-1.6 0.3,-1.6 0.9,-1.4 1.4,-0.9 1.6,-0.3 1.7,0.3 1.3,0.9 1,1.4 0.3,1.6 m 28.3,-453.5 -0.3,1.6 -0.9,1.4 -1.4,0.9 -1.6,0.3 -1.6,-0.3 -1.4,-0.9 -0.9,-1.4 -0.4,-1.6 0.4,-1.7 0.9,-1.3 1.4,-1 1.6,-0.3 1.6,0.3 1.4,1 0.9,1.3 0.3,1.7 m 0,28.3 -0.3,1.6 -0.9,1.4 -1.4,0.9 -1.6,0.4 -1.6,-0.4 -1.4,-0.9 -0.9,-1.4 -0.4,-1.6 0.4,-1.6 0.9,-1.4 1.4,-0.9 1.6,-0.3 1.6,0.3 1.4,0.9 0.9,1.4 0.3,1.6 m 0,28.4 -0.3,1.6 -0.9,1.4 -1.4,0.9 -1.6,0.3 -1.6,-0.3 -1.4,-0.9 -0.9,-1.4 -0.4,-1.6 0.4,-1.7 0.9,-1.3 1.4,-1 1.6,-0.3 1.6,0.3 1.4,1 0.9,1.3 0.3,1.7 m 0,28.3 -0.3,1.6 -0.9,1.4 -1.4,0.9 -1.6,0.4 -1.6,-0.4 -1.4,-0.9 -0.9,-1.4 -0.4,-1.6 0.4,-1.6 0.9,-1.4 1.4,-0.9 1.6,-0.3 1.6,0.3 1.4,0.9 0.9,1.4 0.3,1.6 m 0,28.4 -0.3,1.6 -0.9,1.4 -1.4,0.9 -1.6,0.3 -1.6,-0.3 -1.4,-0.9 -0.9,-1.4 -0.4,-1.6 0.4,-1.7 0.9,-1.4 1.4,-0.9 1.6,-0.3 1.6,0.3 1.4,0.9 0.9,1.4 0.3,1.7 m 0,28.3 -0.3,1.6 -0.9,1.4 -1.4,0.9 -1.6,0.4 -1.6,-0.4 -1.4,-0.9 -0.9,-1.4 -0.4,-1.6 0.4,-1.6 0.9,-1.4 1.4,-0.9 1.6,-0.4 1.6,0.4 1.4,0.9 0.9,1.4 0.3,1.6 m 0,28.3 -0.3,1.7 -0.9,1.4 -1.4,0.9 -1.6,0.3 -1.6,-0.3 -1.4,-0.9 -0.9,-1.4 -0.4,-1.7 0.4,-1.6 0.9,-1.4 1.4,-0.9 1.6,-0.3 1.6,0.3 1.4,0.9 0.9,1.4 0.3,1.6 m 0,28.4 -0.3,1.6 -0.9,1.4 -1.4,0.9 -1.6,0.3 -1.6,-0.3 -1.4,-0.9 -0.9,-1.4 -0.4,-1.6 0.4,-1.6 0.9,-1.4 1.4,-0.9 1.6,-0.4 1.6,0.4 1.4,0.9 0.9,1.4 0.3,1.6 m 0,28.3 -0.3,1.7 -0.9,1.3 -1.4,1 -1.6,0.3 -1.6,-0.3 -1.4,-1 -0.9,-1.3 -0.4,-1.7 0.4,-1.6 0.9,-1.4 1.4,-0.9 1.6,-0.3 1.6,0.3 1.4,0.9 0.9,1.4 0.3,1.6 m 0,28.4 -0.3,1.6 -0.9,1.4 -1.4,0.9 -1.6,0.3 -1.6,-0.3 -1.4,-0.9 -0.9,-1.4 -0.4,-1.6 0.4,-1.6 0.9,-1.4 1.4,-0.9 1.6,-0.4 1.6,0.4 1.4,0.9 0.9,1.4 0.3,1.6 m 0,28.3 -0.3,1.7 -0.9,1.3 -1.4,1 -1.6,0.3 -1.6,-0.3 -1.4,-1 -0.9,-1.3 -0.4,-1.7 0.4,-1.6 0.9,-1.4 1.4,-0.9 1.6,-0.3 1.6,0.3 1.4,0.9 0.9,1.4 0.3,1.6 m 0,28.4 -0.3,1.6 -0.9,1.4 -1.4,0.9 -1.6,0.3 -1.6,-0.3 -1.4,-0.9 -0.9,-1.4 -0.4,-1.6 0.4,-1.7 0.9,-1.3 1.4,-1 1.6,-0.3 1.6,0.3 1.4,1 0.9,1.3 0.3,1.7 m 0,28.3 -0.3,1.7 -0.9,1.3 -1.4,1 -1.6,0.3 -1.6,-0.3 -1.4,-1 -0.9,-1.3 -0.4,-1.7 0.4,-1.6 0.9,-1.4 1.4,-0.9 1.6,-0.3 1.6,0.3 1.4,0.9 0.9,1.4 0.3,1.6 m 0,28.4 -0.3,1.6 -0.9,1.4 -1.4,0.9 -1.6,0.3 -1.6,-0.3 -1.4,-0.9 -0.9,-1.4 -0.4,-1.6 0.4,-1.7 0.9,-1.3 1.4,-1 1.6,-0.3 1.6,0.3 1.4,1 0.9,1.3 0.3,1.7 m 0,28.3 -0.3,1.6 -0.9,1.4 -1.4,0.9 -1.6,0.4 -1.6,-0.4 -1.4,-0.9 -0.9,-1.4 -0.4,-1.6 0.4,-1.6 0.9,-1.4 1.4,-0.9 1.6,-0.3 1.6,0.3 1.4,0.9 0.9,1.4 0.3,1.6 m 0,28.4 -0.3,1.6 -0.9,1.4 -1.4,0.9 -1.6,0.3 -1.6,-0.3 -1.4,-0.9 -0.9,-1.4 -0.4,-1.6 0.4,-1.7 0.9,-1.3 1.4,-1 1.6,-0.3 1.6,0.3 1.4,1 0.9,1.3 0.3,1.7 m 0,28.3 -0.3,1.6 -0.9,1.4 -1.4,0.9 -1.6,0.4 -1.6,-0.4 -1.4,-0.9 -0.9,-1.4 -0.4,-1.6 0.4,-1.6 0.9,-1.4 1.4,-0.9 1.6,-0.3 1.6,0.3 1.4,0.9 0.9,1.4 0.3,1.6 m 28.4,-453.5 -0.3,1.6 -1,1.4 -1.3,0.9 -1.7,0.3 -1.6,-0.3 -1.4,-0.9 -0.9,-1.4 -0.3,-1.6 0.3,-1.7 0.9,-1.3 1.4,-1 1.6,-0.3 1.7,0.3 1.3,1 1,1.3 0.3,1.7 m 0,28.3 -0.3,1.6 -1,1.4 -1.3,0.9 -1.7,0.4 -1.6,-0.4 -1.4,-0.9 -0.9,-1.4 -0.3,-1.6 0.3,-1.6 0.9,-1.4 1.4,-0.9 1.6,-0.3 1.7,0.3 1.3,0.9 1,1.4 0.3,1.6 m 0,28.4 -0.3,1.6 -1,1.4 -1.3,0.9 -1.7,0.3 -1.6,-0.3 -1.4,-0.9 -0.9,-1.4 -0.3,-1.6 0.3,-1.7 0.9,-1.3 1.4,-1 1.6,-0.3 1.7,0.3 1.3,1 1,1.3 0.3,1.7 m 0,28.3 -0.3,1.6 -1,1.4 -1.3,0.9 -1.7,0.4 -1.6,-0.4 -1.4,-0.9 -0.9,-1.4 -0.3,-1.6 0.3,-1.6 0.9,-1.4 1.4,-0.9 1.6,-0.3 1.7,0.3 1.3,0.9 1,1.4 0.3,1.6 m 0,28.4 -0.3,1.6 -1,1.4 -1.3,0.9 -1.7,0.3 -1.6,-0.3 -1.4,-0.9 -0.9,-1.4 -0.3,-1.6 0.3,-1.7 0.9,-1.4 1.4,-0.9 1.6,-0.3 1.7,0.3 1.3,0.9 1,1.4 0.3,1.7 m 0,28.3 -0.3,1.6 -1,1.4 -1.3,0.9 -1.7,0.4 -1.6,-0.4 -1.4,-0.9 -0.9,-1.4 -0.3,-1.6 0.3,-1.6 0.9,-1.4 1.4,-0.9 1.6,-0.4 1.7,0.4 1.3,0.9 1,1.4 0.3,1.6 m 0,28.3 -0.3,1.7 -1,1.4 -1.3,0.9 -1.7,0.3 -1.6,-0.3 -1.4,-0.9 -0.9,-1.4 -0.3,-1.7 0.3,-1.6 0.9,-1.4 1.4,-0.9 1.6,-0.3 1.7,0.3 1.3,0.9 1,1.4 0.3,1.6 m 0,28.4 -0.3,1.6 -1,1.4 -1.3,0.9 -1.7,0.3 -1.6,-0.3 -1.4,-0.9 -0.9,-1.4 -0.3,-1.6 0.3,-1.6 0.9,-1.4 1.4,-0.9 1.6,-0.4 1.7,0.4 1.3,0.9 1,1.4 0.3,1.6 m 0,28.3 -0.3,1.7 -1,1.3 -1.3,1 -1.7,0.3 -1.6,-0.3 -1.4,-1 -0.9,-1.3 -0.3,-1.7 0.3,-1.6 0.9,-1.4 1.4,-0.9 1.6,-0.3 1.7,0.3 1.3,0.9 1,1.4 0.3,1.6 m 0,28.4 -0.3,1.6 -1,1.4 -1.3,0.9 -1.7,0.3 -1.6,-0.3 -1.4,-0.9 -0.9,-1.4 -0.3,-1.6 0.3,-1.6 0.9,-1.4 1.4,-0.9 1.6,-0.4 1.7,0.4 1.3,0.9 1,1.4 0.3,1.6 m 0,28.3 -0.3,1.7 -1,1.3 -1.3,1 -1.7,0.3 -1.6,-0.3 -1.4,-1 -0.9,-1.3 -0.3,-1.7 0.3,-1.6 0.9,-1.4 1.4,-0.9 1.6,-0.3 1.7,0.3 1.3,0.9 1,1.4 0.3,1.6 m 0,28.4 -0.3,1.6 -1,1.4 -1.3,0.9 -1.7,0.3 -1.6,-0.3 -1.4,-0.9 -0.9,-1.4 -0.3,-1.6 0.3,-1.7 0.9,-1.3 1.4,-1 1.6,-0.3 1.7,0.3 1.3,1 1,1.3 0.3,1.7 m 0,28.3 -0.3,1.7 -1,1.3 -1.3,1 -1.7,0.3 -1.6,-0.3 -1.4,-1 -0.9,-1.3 -0.3,-1.7 0.3,-1.6 0.9,-1.4 1.4,-0.9 1.6,-0.3 1.7,0.3 1.3,0.9 1,1.4 0.3,1.6 m 0,28.4 -0.3,1.6 -1,1.4 -1.3,0.9 -1.7,0.3 -1.6,-0.3 -1.4,-0.9 -0.9,-1.4 -0.3,-1.6 0.3,-1.7 0.9,-1.3 1.4,-1 1.6,-0.3 1.7,0.3 1.3,1 1,1.3 0.3,1.7 m 0,28.3 -0.3,1.6 -1,1.4 -1.3,0.9 -1.7,0.4 -1.6,-0.4 -1.4,-0.9 -0.9,-1.4 -0.3,-1.6 0.3,-1.6 0.9,-1.4 1.4,-0.9 1.6,-0.3 1.7,0.3 1.3,0.9 1,1.4 0.3,1.6 m 0,28.4 -0.3,1.6 -1,1.4 -1.3,0.9 -1.7,0.3 -1.6,-0.3 -1.4,-0.9 -0.9,-1.4 -0.3,-1.6 0.3,-1.7 0.9,-1.3 1.4,-1 1.6,-0.3 1.7,0.3 1.3,1 1,1.3 0.3,1.7 m 0,28.3 -0.3,1.6 -1,1.4 -1.3,0.9 -1.7,0.4 -1.6,-0.4 -1.4,-0.9 -0.9,-1.4 -0.3,-1.6 0.3,-1.6 0.9,-1.4 1.4,-0.9 1.6,-0.3 1.7,0.3 1.3,0.9 1,1.4 0.3,1.6 m -481.9,-602.4 -0.3,1.7 -1,1.4 -1.3,0.9 -1.7,0.3 -1.6,-0.3 -1.4,-0.9 -0.9,-1.4 -0.3,-1.7 0.3,-1.6 0.9,-1.4 1.4,-0.9 1.6,-0.3 1.7,0.3 1.3,0.9 1,1.4 0.3,1.6 m 0,28.4 -0.3,1.6 -1,1.4 -1.3,0.9 -1.7,0.3 -1.6,-0.3 -1.4,-0.9 -0.9,-1.4 -0.3,-1.6 0.3,-1.6 0.9,-1.4 1.4,-0.9 1.6,-0.4 1.7,0.4 1.3,0.9 1,1.4 0.3,1.6 m 0,28.3 -0.3,1.7 -1,1.3 -1.3,1 -1.7,0.3 -1.6,-0.3 -1.4,-1 -0.9,-1.3 -0.3,-1.7 0.3,-1.6 0.9,-1.4 1.4,-0.9 1.6,-0.3 1.7,0.3 1.3,0.9 1,1.4 0.3,1.6 m 0,28.4 -0.3,1.6 -1,1.4 -1.3,0.9 -1.7,0.3 -1.6,-0.3 -1.4,-0.9 -0.9,-1.4 -0.3,-1.6 0.3,-1.6 0.9,-1.4 1.4,-0.9 1.6,-0.4 1.7,0.4 1.3,0.9 1,1.4 0.3,1.6 m 0,28.3 -0.3,1.7 -1,1.3 -1.3,1 -1.7,0.3 -1.6,-0.3 -1.4,-1 -0.9,-1.3 -0.3,-1.7 0.3,-1.6 0.9,-1.4 1.4,-0.9 1.6,-0.3 1.7,0.3 1.3,0.9 1,1.4 0.3,1.6 m 28.3,-113.4 -0.3,1.7 -0.9,1.4 -1.4,0.9 -1.6,0.3 -1.6,-0.3 -1.4,-0.9 -0.9,-1.4 -0.4,-1.7 0.4,-1.6 0.9,-1.4 1.4,-0.9 1.6,-0.3 1.6,0.3 1.4,0.9 0.9,1.4 0.3,1.6 m 0,28.4 -0.3,1.6 -0.9,1.4 -1.4,0.9 -1.6,0.3 -1.6,-0.3 -1.4,-0.9 -0.9,-1.4 -0.4,-1.6 0.4,-1.6 0.9,-1.4 1.4,-0.9 1.6,-0.4 1.6,0.4 1.4,0.9 0.9,1.4 0.3,1.6 m 0,28.3 -0.3,1.7 -0.9,1.3 -1.4,1 -1.6,0.3 -1.6,-0.3 -1.4,-1 -0.9,-1.3 -0.4,-1.7 0.4,-1.6 0.9,-1.4 1.4,-0.9 1.6,-0.3 1.6,0.3 1.4,0.9 0.9,1.4 0.3,1.6 m 0,28.4 -0.3,1.6 -0.9,1.4 -1.4,0.9 -1.6,0.3 -1.6,-0.3 -1.4,-0.9 -0.9,-1.4 -0.4,-1.6 0.4,-1.6 0.9,-1.4 1.4,-0.9 1.6,-0.4 1.6,0.4 1.4,0.9 0.9,1.4 0.3,1.6 m 0,28.3 -0.3,1.7 -0.9,1.3 -1.4,1 -1.6,0.3 -1.6,-0.3 -1.4,-1 -0.9,-1.3 -0.4,-1.7 0.4,-1.6 0.9,-1.4 1.4,-0.9 1.6,-0.3 1.6,0.3 1.4,0.9 0.9,1.4 0.3,1.6 m 28.4,-113.4 -0.3,1.7 -1,1.4 -1.3,0.9 -1.7,0.3 -1.6,-0.3 -1.4,-0.9 -0.9,-1.4 -0.3,-1.7 0.3,-1.6 0.9,-1.4 1.4,-0.9 1.6,-0.3 1.7,0.3 1.3,0.9 1,1.4 0.3,1.6 m 0,28.4 -0.3,1.6 -1,1.4 -1.3,0.9 -1.7,0.3 -1.6,-0.3 -1.4,-0.9 -0.9,-1.4 -0.3,-1.6 0.3,-1.6 0.9,-1.4 1.4,-0.9 1.6,-0.4 1.7,0.4 1.3,0.9 1,1.4 0.3,1.6 m 0,28.3 -0.3,1.7 -1,1.3 -1.3,1 -1.7,0.3 -1.6,-0.3 -1.4,-1 -0.9,-1.3 -0.3,-1.7 0.3,-1.6 0.9,-1.4 1.4,-0.9 1.6,-0.3 1.7,0.3 1.3,0.9 1,1.4 0.3,1.6 m 0,28.4 -0.3,1.6 -1,1.4 -1.3,0.9 -1.7,0.3 -1.6,-0.3 -1.4,-0.9 -0.9,-1.4 -0.3,-1.6 0.3,-1.6 0.9,-1.4 1.4,-0.9 1.6,-0.4 1.7,0.4 1.3,0.9 1,1.4 0.3,1.6 m 0,28.3 -0.3,1.7 -1,1.3 -1.3,1 -1.7,0.3 -1.6,-0.3 -1.4,-1 -0.9,-1.3 -0.3,-1.7 0.3,-1.6 0.9,-1.4 1.4,-0.9 1.6,-0.3 1.7,0.3 1.3,0.9 1,1.4 0.3,1.6 m 28.3,-113.4 -0.3,1.7 -0.9,1.4 -1.4,0.9 -1.6,0.3 -1.6,-0.3 -1.4,-0.9 -1,-1.4 -0.3,-1.7 0.3,-1.6 1,-1.4 1.4,-0.9 1.6,-0.3 1.6,0.3 1.4,0.9 0.9,1.4 0.3,1.6 m 0,28.4 -0.3,1.6 -0.9,1.4 -1.4,0.9 -1.6,0.3 -1.6,-0.3 -1.4,-0.9 -1,-1.4 -0.3,-1.6 0.3,-1.6 1,-1.4 1.4,-0.9 1.6,-0.4 1.6,0.4 1.4,0.9 0.9,1.4 0.3,1.6 m 0,28.3 -0.3,1.7 -0.9,1.3 -1.4,1 -1.6,0.3 -1.6,-0.3 -1.4,-1 -1,-1.3 -0.3,-1.7 0.3,-1.6 1,-1.4 1.4,-0.9 1.6,-0.3 1.6,0.3 1.4,0.9 0.9,1.4 0.3,1.6 m 0,28.4 -0.3,1.6 -0.9,1.4 -1.4,0.9 -1.6,0.3 -1.6,-0.3 -1.4,-0.9 -1,-1.4 -0.3,-1.6 0.3,-1.6 1,-1.4 1.4,-0.9 1.6,-0.4 1.6,0.4 1.4,0.9 0.9,1.4 0.3,1.6 m 0,28.3 -0.3,1.7 -0.9,1.3 -1.4,1 -1.6,0.3 -1.6,-0.3 -1.4,-1 -1,-1.3 -0.3,-1.7 0.3,-1.6 1,-1.4 1.4,-0.9 1.6,-0.3 1.6,0.3 1.4,0.9 0.9,1.4 0.3,1.6 m 28.4,-113.4 -0.3,1.7 -1,1.4 -1.3,0.9 -1.7,0.3 -1.6,-0.3 -1.4,-0.9 -0.9,-1.4 -0.3,-1.7 0.3,-1.6 0.9,-1.4 1.4,-0.9 1.6,-0.3 1.7,0.3 1.3,0.9 1,1.4 0.3,1.6 m 0,28.4 -0.3,1.6 -1,1.4 -1.3,0.9 -1.7,0.3 -1.6,-0.3 -1.4,-0.9 -0.9,-1.4 -0.3,-1.6 0.3,-1.6 0.9,-1.4 1.4,-0.9 1.6,-0.4 1.7,0.4 1.3,0.9 1,1.4 0.3,1.6 m 0,28.3 -0.3,1.7 -1,1.3 -1.3,1 -1.7,0.3 -1.6,-0.3 -1.4,-1 -0.9,-1.3 -0.3,-1.7 0.3,-1.6 0.9,-1.4 1.4,-0.9 1.6,-0.3 1.7,0.3 1.3,0.9 1,1.4 0.3,1.6 m 0,28.4 -0.3,1.6 -1,1.4 -1.3,0.9 -1.7,0.3 -1.6,-0.3 -1.4,-0.9 -0.9,-1.4 -0.3,-1.6 0.3,-1.6 0.9,-1.4 1.4,-0.9 1.6,-0.4 1.7,0.4 1.3,0.9 1,1.4 0.3,1.6 m 0,28.3 -0.3,1.7 -1,1.3 -1.3,1 -1.7,0.3 -1.6,-0.3 -1.4,-1 -0.9,-1.3 -0.3,-1.7 0.3,-1.6 0.9,-1.4 1.4,-0.9 1.6,-0.3 1.7,0.3 1.3,0.9 1,1.4 0.3,1.6 m 28.3,-113.4 -0.3,1.7 -0.9,1.4 -1.4,0.9 -1.6,0.3 -1.7,-0.3 -1.3,-0.9 -1,-1.4 -0.3,-1.7 0.3,-1.6 1,-1.4 1.3,-0.9 1.7,-0.3 1.6,0.3 1.4,0.9 0.9,1.4 0.3,1.6 m 0,28.4 -0.3,1.6 -0.9,1.4 -1.4,0.9 -1.6,0.3 -1.7,-0.3 -1.3,-0.9 -1,-1.4 -0.3,-1.6 0.3,-1.6 1,-1.4 1.3,-0.9 1.7,-0.4 1.6,0.4 1.4,0.9 0.9,1.4 0.3,1.6 m 0,28.3 -0.3,1.7 -0.9,1.3 -1.4,1 -1.6,0.3 -1.7,-0.3 -1.3,-1 -1,-1.3 -0.3,-1.7 0.3,-1.6 1,-1.4 1.3,-0.9 1.7,-0.3 1.6,0.3 1.4,0.9 0.9,1.4 0.3,1.6 m 0,28.4 -0.3,1.6 -0.9,1.4 -1.4,0.9 -1.6,0.3 -1.7,-0.3 -1.3,-0.9 -1,-1.4 -0.3,-1.6 0.3,-1.6 1,-1.4 1.3,-0.9 1.7,-0.4 1.6,0.4 1.4,0.9 0.9,1.4 0.3,1.6 m 0,28.3 -0.3,1.7 -0.9,1.3 -1.4,1 -1.6,0.3 -1.7,-0.3 -1.3,-1 -1,-1.3 -0.3,-1.7 0.3,-1.6 1,-1.4 1.3,-0.9 1.7,-0.3 1.6,0.3 1.4,0.9 0.9,1.4 0.3,1.6 m 28.4,-113.4 -0.4,1.7 -0.9,1.4 -1.4,0.9 -1.6,0.3 -1.6,-0.3 -1.4,-0.9 -0.9,-1.4 -0.3,-1.7 0.3,-1.6 0.9,-1.4 1.4,-0.9 1.6,-0.3 1.6,0.3 1.4,0.9 0.9,1.4 0.4,1.6 m 0,28.4 -0.4,1.6 -0.9,1.4 -1.4,0.9 -1.6,0.3 -1.6,-0.3 -1.4,-0.9 -0.9,-1.4 -0.3,-1.6 0.3,-1.6 0.9,-1.4 1.4,-0.9 1.6,-0.4 1.6,0.4 1.4,0.9 0.9,1.4 0.4,1.6 m 0,28.3 -0.4,1.7 -0.9,1.3 -1.4,1 -1.6,0.3 -1.6,-0.3 -1.4,-1 -0.9,-1.3 -0.3,-1.7 0.3,-1.6 0.9,-1.4 1.4,-0.9 1.6,-0.3 1.6,0.3 1.4,0.9 0.9,1.4 0.4,1.6 m 0,28.4 -0.4,1.6 -0.9,1.4 -1.4,0.9 -1.6,0.3 -1.6,-0.3 -1.4,-0.9 -0.9,-1.4 -0.3,-1.6 0.3,-1.6 0.9,-1.4 1.4,-0.9 1.6,-0.4 1.6,0.4 1.4,0.9 0.9,1.4 0.4,1.6 m 0,28.3 -0.4,1.7 -0.9,1.3 -1.4,1 -1.6,0.3 -1.6,-0.3 -1.4,-1 -0.9,-1.3 -0.3,-1.7 0.3,-1.6 0.9,-1.4 1.4,-0.9 1.6,-0.3 1.6,0.3 1.4,0.9 0.9,1.4 0.4,1.6 m 28.3,-113.4 -0.3,1.7 -0.9,1.4 -1.4,0.9 -1.6,0.3 -1.7,-0.3 -1.3,-0.9 -1,-1.4 -0.3,-1.7 0.3,-1.6 1,-1.4 1.3,-0.9 1.7,-0.3 1.6,0.3 1.4,0.9 0.9,1.4 0.3,1.6 m 0,28.4 -0.3,1.6 -0.9,1.4 -1.4,0.9 -1.6,0.3 -1.7,-0.3 -1.3,-0.9 -1,-1.4 -0.3,-1.6 0.3,-1.6 1,-1.4 1.3,-0.9 1.7,-0.4 1.6,0.4 1.4,0.9 0.9,1.4 0.3,1.6 m 0,28.3 -0.3,1.7 -0.9,1.3 -1.4,1 -1.6,0.3 -1.7,-0.3 -1.3,-1 -1,-1.3 -0.3,-1.7 0.3,-1.6 1,-1.4 1.3,-0.9 1.7,-0.3 1.6,0.3 1.4,0.9 0.9,1.4 0.3,1.6 m 0,28.4 -0.3,1.6 -0.9,1.4 -1.4,0.9 -1.6,0.3 -1.7,-0.3 -1.3,-0.9 -1,-1.4 -0.3,-1.6 0.3,-1.6 1,-1.4 1.3,-0.9 1.7,-0.4 1.6,0.4 1.4,0.9 0.9,1.4 0.3,1.6 m 0,28.3 -0.3,1.7 -0.9,1.3 -1.4,1 -1.6,0.3 -1.7,-0.3 -1.3,-1 -1,-1.3 -0.3,-1.7 0.3,-1.6 1,-1.4 1.3,-0.9 1.7,-0.3 1.6,0.3 1.4,0.9 0.9,1.4 0.3,1.6 m 28.4,-113.4 -0.4,1.7 -0.9,1.4 -1.4,0.9 -1.6,0.3 -1.6,-0.3 -1.4,-0.9 -0.9,-1.4 -0.3,-1.7 0.3,-1.6 0.9,-1.4 1.4,-0.9 1.6,-0.3 1.6,0.3 1.4,0.9 0.9,1.4 0.4,1.6 m 0,28.4 -0.4,1.6 -0.9,1.4 -1.4,0.9 -1.6,0.3 -1.6,-0.3 -1.4,-0.9 -0.9,-1.4 -0.3,-1.6 0.3,-1.6 0.9,-1.4 1.4,-0.9 1.6,-0.4 1.6,0.4 1.4,0.9 0.9,1.4 0.4,1.6 m 0,28.3 -0.4,1.7 -0.9,1.3 -1.4,1 -1.6,0.3 -1.6,-0.3 -1.4,-1 -0.9,-1.3 -0.3,-1.7 0.3,-1.6 0.9,-1.4 1.4,-0.9 1.6,-0.3 1.6,0.3 1.4,0.9 0.9,1.4 0.4,1.6 m 0,28.4 -0.4,1.6 -0.9,1.4 -1.4,0.9 -1.6,0.3 -1.6,-0.3 -1.4,-0.9 -0.9,-1.4 -0.3,-1.6 0.3,-1.6 0.9,-1.4 1.4,-0.9 1.6,-0.4 1.6,0.4 1.4,0.9 0.9,1.4 0.4,1.6 m 0,28.3 -0.4,1.7 -0.9,1.3 -1.4,1 -1.6,0.3 -1.6,-0.3 -1.4,-1 -0.9,-1.3 -0.3,-1.7 0.3,-1.6 0.9,-1.4 1.4,-0.9 1.6,-0.3 1.6,0.3 1.4,0.9 0.9,1.4 0.4,1.6 m 28.3,-113.4 -0.3,1.7 -0.9,1.4 -1.4,0.9 -1.6,0.3 -1.7,-0.3 -1.4,-0.9 -0.9,-1.4 -0.3,-1.7 0.3,-1.6 0.9,-1.4 1.4,-0.9 1.7,-0.3 1.6,0.3 1.4,0.9 0.9,1.4 0.3,1.6 m 0,28.4 -0.3,1.6 -0.9,1.4 -1.4,0.9 -1.6,0.3 -1.7,-0.3 -1.4,-0.9 -0.9,-1.4 -0.3,-1.6 0.3,-1.6 0.9,-1.4 1.4,-0.9 1.7,-0.4 1.6,0.4 1.4,0.9 0.9,1.4 0.3,1.6 m 0,28.3 -0.3,1.7 -0.9,1.3 -1.4,1 -1.6,0.3 -1.7,-0.3 -1.4,-1 -0.9,-1.3 -0.3,-1.7 0.3,-1.6 0.9,-1.4 1.4,-0.9 1.7,-0.3 1.6,0.3 1.4,0.9 0.9,1.4 0.3,1.6 m 0,28.4 -0.3,1.6 -0.9,1.4 -1.4,0.9 -1.6,0.3 -1.7,-0.3 -1.4,-0.9 -0.9,-1.4 -0.3,-1.6 0.3,-1.6 0.9,-1.4 1.4,-0.9 1.7,-0.4 1.6,0.4 1.4,0.9 0.9,1.4 0.3,1.6 m 0,28.3 -0.3,1.7 -0.9,1.3 -1.4,1 -1.6,0.3 -1.7,-0.3 -1.4,-1 -0.9,-1.3 -0.3,-1.7 0.3,-1.6 0.9,-1.4 1.4,-0.9 1.7,-0.3 1.6,0.3 1.4,0.9 0.9,1.4 0.3,1.6 m 28.4,-113.4 -0.4,1.7 -0.9,1.4 -1.4,0.9 -1.6,0.3 -1.6,-0.3 -1.4,-0.9 -0.9,-1.4 -0.3,-1.7 0.3,-1.6 0.9,-1.4 1.4,-0.9 1.6,-0.3 1.6,0.3 1.4,0.9 0.9,1.4 0.4,1.6 m 0,28.4 -0.4,1.6 -0.9,1.4 -1.4,0.9 -1.6,0.3 -1.6,-0.3 -1.4,-0.9 -0.9,-1.4 -0.3,-1.6 0.3,-1.6 0.9,-1.4 1.4,-0.9 1.6,-0.4 1.6,0.4 1.4,0.9 0.9,1.4 0.4,1.6 m 0,28.3 -0.4,1.7 -0.9,1.3 -1.4,1 -1.6,0.3 -1.6,-0.3 -1.4,-1 -0.9,-1.3 -0.3,-1.7 0.3,-1.6 0.9,-1.4 1.4,-0.9 1.6,-0.3 1.6,0.3 1.4,0.9 0.9,1.4 0.4,1.6 m 0,28.4 -0.4,1.6 -0.9,1.4 -1.4,0.9 -1.6,0.3 -1.6,-0.3 -1.4,-0.9 -0.9,-1.4 -0.3,-1.6 0.3,-1.6 0.9,-1.4 1.4,-0.9 1.6,-0.4 1.6,0.4 1.4,0.9 0.9,1.4 0.4,1.6 m 0,28.3 -0.4,1.7 -0.9,1.3 -1.4,1 -1.6,0.3 -1.6,-0.3 -1.4,-1 -0.9,-1.3 -0.3,-1.7 0.3,-1.6 0.9,-1.4 1.4,-0.9 1.6,-0.3 1.6,0.3 1.4,0.9 0.9,1.4 0.4,1.6 m 28.3,-113.4 -0.3,1.7 -0.9,1.4 -1.4,0.9 -1.7,0.3 -1.6,-0.3 -1.4,-0.9 -0.9,-1.4 -0.3,-1.7 0.3,-1.6 0.9,-1.4 1.4,-0.9 1.6,-0.3 1.7,0.3 1.4,0.9 0.9,1.4 0.3,1.6 m 0,28.4 -0.3,1.6 -0.9,1.4 -1.4,0.9 -1.7,0.3 -1.6,-0.3 -1.4,-0.9 -0.9,-1.4 -0.3,-1.6 0.3,-1.6 0.9,-1.4 1.4,-0.9 1.6,-0.4 1.7,0.4 1.4,0.9 0.9,1.4 0.3,1.6 m 0,28.3 -0.3,1.7 -0.9,1.3 -1.4,1 -1.7,0.3 -1.6,-0.3 -1.4,-1 -0.9,-1.3 -0.3,-1.7 0.3,-1.6 0.9,-1.4 1.4,-0.9 1.6,-0.3 1.7,0.3 1.4,0.9 0.9,1.4 0.3,1.6 m 0,28.4 -0.3,1.6 -0.9,1.4 -1.4,0.9 -1.7,0.3 -1.6,-0.3 -1.4,-0.9 -0.9,-1.4 -0.3,-1.6 0.3,-1.6 0.9,-1.4 1.4,-0.9 1.6,-0.4 1.7,0.4 1.4,0.9 0.9,1.4 0.3,1.6 m 0,28.3 -0.3,1.7 -0.9,1.3 -1.4,1 -1.7,0.3 -1.6,-0.3 -1.4,-1 -0.9,-1.3 -0.3,-1.7 0.3,-1.6 0.9,-1.4 1.4,-0.9 1.6,-0.3 1.7,0.3 1.4,0.9 0.9,1.4 0.3,1.6 m 28.3,-113.4 -0.3,1.7 -0.9,1.4 -1.4,0.9 -1.6,0.3 -1.6,-0.3 -1.4,-0.9 -0.9,-1.4 -0.4,-1.7 0.4,-1.6 0.9,-1.4 1.4,-0.9 1.6,-0.3 1.6,0.3 1.4,0.9 0.9,1.4 0.3,1.6 m 0,28.4 -0.3,1.6 -0.9,1.4 -1.4,0.9 -1.6,0.3 -1.6,-0.3 -1.4,-0.9 -0.9,-1.4 -0.4,-1.6 0.4,-1.6 0.9,-1.4 1.4,-0.9 1.6,-0.4 1.6,0.4 1.4,0.9 0.9,1.4 0.3,1.6 m 0,28.3 -0.3,1.7 -0.9,1.3 -1.4,1 -1.6,0.3 -1.6,-0.3 -1.4,-1 -0.9,-1.3 -0.4,-1.7 0.4,-1.6 0.9,-1.4 1.4,-0.9 1.6,-0.3 1.6,0.3 1.4,0.9 0.9,1.4 0.3,1.6 m 0,28.4 -0.3,1.6 -0.9,1.4 -1.4,0.9 -1.6,0.3 -1.6,-0.3 -1.4,-0.9 -0.9,-1.4 -0.4,-1.6 0.4,-1.6 0.9,-1.4 1.4,-0.9 1.6,-0.4 1.6,0.4 1.4,0.9 0.9,1.4 0.3,1.6 m 0,28.3 -0.3,1.7 -0.9,1.3 -1.4,1 -1.6,0.3 -1.6,-0.3 -1.4,-1 -0.9,-1.3 -0.4,-1.7 0.4,-1.6 0.9,-1.4 1.4,-0.9 1.6,-0.3 1.6,0.3 1.4,0.9 0.9,1.4 0.3,1.6 m 28.4,-113.4 -0.3,1.7 -1,1.4 -1.3,0.9 -1.7,0.3 -1.6,-0.3 -1.4,-0.9 -0.9,-1.4 -0.3,-1.7 0.3,-1.6 0.9,-1.4 1.4,-0.9 1.6,-0.3 1.7,0.3 1.3,0.9 1,1.4 0.3,1.6 m 0,28.4 -0.3,1.6 -1,1.4 -1.3,0.9 -1.7,0.3 -1.6,-0.3 -1.4,-0.9 -0.9,-1.4 -0.3,-1.6 0.3,-1.6 0.9,-1.4 1.4,-0.9 1.6,-0.4 1.7,0.4 1.3,0.9 1,1.4 0.3,1.6 m 0,28.3 -0.3,1.7 -1,1.3 -1.3,1 -1.7,0.3 -1.6,-0.3 -1.4,-1 -0.9,-1.3 -0.3,-1.7 0.3,-1.6 0.9,-1.4 1.4,-0.9 1.6,-0.3 1.7,0.3 1.3,0.9 1,1.4 0.3,1.6 m 0,28.4 -0.3,1.6 -1,1.4 -1.3,0.9 -1.7,0.3 -1.6,-0.3 -1.4,-0.9 -0.9,-1.4 -0.3,-1.6 0.3,-1.6 0.9,-1.4 1.4,-0.9 1.6,-0.4 1.7,0.4 1.3,0.9 1,1.4 0.3,1.6 m 0,28.3 -0.3,1.7 -1,1.3 -1.3,1 -1.7,0.3 -1.6,-0.3 -1.4,-1 -0.9,-1.3 -0.3,-1.7 0.3,-1.6 0.9,-1.4 1.4,-0.9 1.6,-0.3 1.7,0.3 1.3,0.9 1,1.4 0.3,1.6 m 28.3,-113.4 -0.3,1.7 -0.9,1.4 -1.4,0.9 -1.6,0.3 -1.6,-0.3 -1.4,-0.9 -0.9,-1.4 -0.4,-1.7 0.4,-1.6 0.9,-1.4 1.4,-0.9 1.6,-0.3 1.6,0.3 1.4,0.9 0.9,1.4 0.3,1.6 m 0,28.4 -0.3,1.6 -0.9,1.4 -1.4,0.9 -1.6,0.3 -1.6,-0.3 -1.4,-0.9 -0.9,-1.4 -0.4,-1.6 0.4,-1.6 0.9,-1.4 1.4,-0.9 1.6,-0.4 1.6,0.4 1.4,0.9 0.9,1.4 0.3,1.6 m 0,28.3 -0.3,1.7 -0.9,1.3 -1.4,1 -1.6,0.3 -1.6,-0.3 -1.4,-1 -0.9,-1.3 -0.4,-1.7 0.4,-1.6 0.9,-1.4 1.4,-0.9 1.6,-0.3 1.6,0.3 1.4,0.9 0.9,1.4 0.3,1.6 m 0,28.4 -0.3,1.6 -0.9,1.4 -1.4,0.9 -1.6,0.3 -1.6,-0.3 -1.4,-0.9 -0.9,-1.4 -0.4,-1.6 0.4,-1.6 0.9,-1.4 1.4,-0.9 1.6,-0.4 1.6,0.4 1.4,0.9 0.9,1.4 0.3,1.6 m 0,28.3 -0.3,1.7 -0.9,1.3 -1.4,1 -1.6,0.3 -1.6,-0.3 -1.4,-1 -0.9,-1.3 -0.4,-1.7 0.4,-1.6 0.9,-1.4 1.4,-0.9 1.6,-0.3 1.6,0.3 1.4,0.9 0.9,1.4 0.3,1.6 m 28.4,-113.4 -0.3,1.7 -1,1.4 -1.3,0.9 -1.7,0.3 -1.6,-0.3 -1.4,-0.9 -0.9,-1.4 -0.3,-1.7 0.3,-1.6 0.9,-1.4 1.4,-0.9 1.6,-0.3 1.7,0.3 1.3,0.9 1,1.4 0.3,1.6 m 0,28.4 -0.3,1.6 -1,1.4 -1.3,0.9 -1.7,0.3 -1.6,-0.3 -1.4,-0.9 -0.9,-1.4 -0.3,-1.6 0.3,-1.6 0.9,-1.4 1.4,-0.9 1.6,-0.4 1.7,0.4 1.3,0.9 1,1.4 0.3,1.6 m 0,28.3 -0.3,1.7 -1,1.3 -1.3,1 -1.7,0.3 -1.6,-0.3 -1.4,-1 -0.9,-1.3 -0.3,-1.7 0.3,-1.6 0.9,-1.4 1.4,-0.9 1.6,-0.3 1.7,0.3 1.3,0.9 1,1.4 0.3,1.6 m 0,28.4 -0.3,1.6 -1,1.4 -1.3,0.9 -1.7,0.3 -1.6,-0.3 -1.4,-0.9 -0.9,-1.4 -0.3,-1.6 0.3,-1.6 0.9,-1.4 1.4,-0.9 1.6,-0.4 1.7,0.4 1.3,0.9 1,1.4 0.3,1.6 m 0,28.3 -0.3,1.7 -1,1.3 -1.3,1 -1.7,0.3 -1.6,-0.3 -1.4,-1 -0.9,-1.3 -0.3,-1.7 0.3,-1.6 0.9,-1.4 1.4,-0.9 1.6,-0.3 1.7,0.3 1.3,0.9 1,1.4 0.3,1.6 m 28.3,-113.4 -0.3,1.7 -0.9,1.4 -1.4,0.9 -1.6,0.3 -1.6,-0.3 -1.4,-0.9 -0.9,-1.4 -0.4,-1.7 0.4,-1.6 0.9,-1.4 1.4,-0.9 1.6,-0.3 1.6,0.3 1.4,0.9 0.9,1.4 0.3,1.6 m 0,28.4 -0.3,1.6 -0.9,1.4 -1.4,0.9 -1.6,0.3 -1.6,-0.3 -1.4,-0.9 -0.9,-1.4 -0.4,-1.6 0.4,-1.6 0.9,-1.4 1.4,-0.9 1.6,-0.4 1.6,0.4 1.4,0.9 0.9,1.4 0.3,1.6 m 0,28.3 -0.3,1.7 -0.9,1.3 -1.4,1 -1.6,0.3 -1.6,-0.3 -1.4,-1 -0.9,-1.3 -0.4,-1.7 0.4,-1.6 0.9,-1.4 1.4,-0.9 1.6,-0.3 1.6,0.3 1.4,0.9 0.9,1.4 0.3,1.6 m 0,28.4 -0.3,1.6 -0.9,1.4 -1.4,0.9 -1.6,0.3 -1.6,-0.3 -1.4,-0.9 -0.9,-1.4 -0.4,-1.6 0.4,-1.6 0.9,-1.4 1.4,-0.9 1.6,-0.4 1.6,0.4 1.4,0.9 0.9,1.4 0.3,1.6 m 0,28.3 -0.3,1.7 -0.9,1.3 -1.4,1 -1.6,0.3 -1.6,-0.3 -1.4,-1 -0.9,-1.3 -0.4,-1.7 0.4,-1.6 0.9,-1.4 1.4,-0.9 1.6,-0.3 1.6,0.3 1.4,0.9 0.9,1.4 0.3,1.6 m -368.5,538.6 -0.3,1.6 -0.9,1.4 -1.4,0.9 -1.6,0.4 -1.6,-0.4 -1.4,-0.9 -1,-1.4 -0.3,-1.6 0.3,-1.6 1,-1.4 1.4,-0.9 1.6,-0.3 1.6,0.3 1.4,0.9 0.9,1.4 0.3,1.6 m 0,28.4 -0.3,1.6 -0.9,1.4 -1.4,0.9 -1.6,0.3 -1.6,-0.3 -1.4,-0.9 -1,-1.4 -0.3,-1.6 0.3,-1.7 1,-1.3 1.4,-1 1.6,-0.3 1.6,0.3 1.4,1 0.9,1.3 0.3,1.7 m 0,28.3 -0.3,1.6 -0.9,1.4 -1.4,0.9 -1.6,0.4 -1.6,-0.4 -1.4,-0.9 -1,-1.4 -0.3,-1.6 0.3,-1.6 1,-1.4 1.4,-0.9 1.6,-0.3 1.6,0.3 1.4,0.9 0.9,1.4 0.3,1.6 m 28.4,-56.7 -0.3,1.6 -1,1.4 -1.3,0.9 -1.7,0.4 -1.6,-0.4 -1.4,-0.9 -0.9,-1.4 -0.3,-1.6 0.3,-1.6 0.9,-1.4 1.4,-0.9 1.6,-0.3 1.7,0.3 1.3,0.9 1,1.4 0.3,1.6 m 0,28.4 -0.3,1.6 -1,1.4 -1.3,0.9 -1.7,0.3 -1.6,-0.3 -1.4,-0.9 -0.9,-1.4 -0.3,-1.6 0.3,-1.7 0.9,-1.3 1.4,-1 1.6,-0.3 1.7,0.3 1.3,1 1,1.3 0.3,1.7 m 0,28.3 -0.3,1.6 -1,1.4 -1.3,0.9 -1.7,0.4 -1.6,-0.4 -1.4,-0.9 -0.9,-1.4 -0.3,-1.6 0.3,-1.6 0.9,-1.4 1.4,-0.9 1.6,-0.3 1.7,0.3 1.3,0.9 1,1.4 0.3,1.6 m 28.3,-56.7 -0.3,1.6 -0.9,1.4 -1.4,0.9 -1.6,0.4 -1.7,-0.4 -1.3,-0.9 -1,-1.4 -0.3,-1.6 0.3,-1.6 1,-1.4 1.3,-0.9 1.7,-0.3 1.6,0.3 1.4,0.9 0.9,1.4 0.3,1.6 m 0,28.4 -0.3,1.6 -0.9,1.4 -1.4,0.9 -1.6,0.3 -1.7,-0.3 -1.3,-0.9 -1,-1.4 -0.3,-1.6 0.3,-1.7 1,-1.3 1.3,-1 1.7,-0.3 1.6,0.3 1.4,1 0.9,1.3 0.3,1.7 m 0,28.3 -0.3,1.6 -0.9,1.4 -1.4,0.9 -1.6,0.4 -1.7,-0.4 -1.3,-0.9 -1,-1.4 -0.3,-1.6 0.3,-1.6 1,-1.4 1.3,-0.9 1.7,-0.3 1.6,0.3 1.4,0.9 0.9,1.4 0.3,1.6 m 28.4,-56.7 -0.4,1.6 -0.9,1.4 -1.4,0.9 -1.6,0.4 -1.6,-0.4 -1.4,-0.9 -0.9,-1.4 -0.3,-1.6 0.3,-1.6 0.9,-1.4 1.4,-0.9 1.6,-0.3 1.6,0.3 1.4,0.9 0.9,1.4 0.4,1.6 m 0,28.4 -0.4,1.6 -0.9,1.4 -1.4,0.9 -1.6,0.3 -1.6,-0.3 -1.4,-0.9 -0.9,-1.4 -0.3,-1.6 0.3,-1.7 0.9,-1.3 1.4,-1 1.6,-0.3 1.6,0.3 1.4,1 0.9,1.3 0.4,1.7 m 0,28.3 -0.4,1.6 -0.9,1.4 -1.4,0.9 -1.6,0.4 -1.6,-0.4 -1.4,-0.9 -0.9,-1.4 -0.3,-1.6 0.3,-1.6 0.9,-1.4 1.4,-0.9 1.6,-0.3 1.6,0.3 1.4,0.9 0.9,1.4 0.4,1.6 m 28.3,-56.7 -0.3,1.6 -0.9,1.4 -1.4,0.9 -1.6,0.4 -1.7,-0.4 -1.3,-0.9 -1,-1.4 -0.3,-1.6 0.3,-1.6 1,-1.4 1.3,-0.9 1.7,-0.3 1.6,0.3 1.4,0.9 0.9,1.4 0.3,1.6 m 0,28.4 -0.3,1.6 -0.9,1.4 -1.4,0.9 -1.6,0.3 -1.7,-0.3 -1.3,-0.9 -1,-1.4 -0.3,-1.6 0.3,-1.7 1,-1.3 1.3,-1 1.7,-0.3 1.6,0.3 1.4,1 0.9,1.3 0.3,1.7 m 0,28.3 -0.3,1.6 -0.9,1.4 -1.4,0.9 -1.6,0.4 -1.7,-0.4 -1.3,-0.9 -1,-1.4 -0.3,-1.6 0.3,-1.6 1,-1.4 1.3,-0.9 1.7,-0.3 1.6,0.3 1.4,0.9 0.9,1.4 0.3,1.6 m 28.4,-56.7 -0.4,1.6 -0.9,1.4 -1.4,0.9 -1.6,0.4 -1.6,-0.4 -1.4,-0.9 -0.9,-1.4 -0.3,-1.6 0.3,-1.6 0.9,-1.4 1.4,-0.9 1.6,-0.3 1.6,0.3 1.4,0.9 0.9,1.4 0.4,1.6 m 0,28.4 -0.4,1.6 -0.9,1.4 -1.4,0.9 -1.6,0.3 -1.6,-0.3 -1.4,-0.9 -0.9,-1.4 -0.3,-1.6 0.3,-1.7 0.9,-1.3 1.4,-1 1.6,-0.3 1.6,0.3 1.4,1 0.9,1.3 0.4,1.7 m 0,28.3 -0.4,1.6 -0.9,1.4 -1.4,0.9 -1.6,0.4 -1.6,-0.4 -1.4,-0.9 -0.9,-1.4 -0.3,-1.6 0.3,-1.6 0.9,-1.4 1.4,-0.9 1.6,-0.3 1.6,0.3 1.4,0.9 0.9,1.4 0.4,1.6 m 28.3,-56.7 -0.3,1.6 -0.9,1.4 -1.4,0.9 -1.6,0.4 -1.7,-0.4 -1.4,-0.9 -0.9,-1.4 -0.3,-1.6 0.3,-1.6 0.9,-1.4 1.4,-0.9 1.7,-0.3 1.6,0.3 1.4,0.9 0.9,1.4 0.3,1.6 m 0,28.4 -0.3,1.6 -0.9,1.4 -1.4,0.9 -1.6,0.3 -1.7,-0.3 -1.4,-0.9 -0.9,-1.4 -0.3,-1.6 0.3,-1.7 0.9,-1.3 1.4,-1 1.7,-0.3 1.6,0.3 1.4,1 0.9,1.3 0.3,1.7 m 0,28.3 -0.3,1.6 -0.9,1.4 -1.4,0.9 -1.6,0.4 -1.7,-0.4 -1.4,-0.9 -0.9,-1.4 -0.3,-1.6 0.3,-1.6 0.9,-1.4 1.4,-0.9 1.7,-0.3 1.6,0.3 1.4,0.9 0.9,1.4 0.3,1.6 m 28.4,-56.7 -0.4,1.6 -0.9,1.4 -1.4,0.9 -1.6,0.4 -1.6,-0.4 -1.4,-0.9 -0.9,-1.4 -0.3,-1.6 0.3,-1.6 0.9,-1.4 1.4,-0.9 1.6,-0.3 1.6,0.3 1.4,0.9 0.9,1.4 0.4,1.6 m 0,28.4 -0.4,1.6 -0.9,1.4 -1.4,0.9 -1.6,0.3 -1.6,-0.3 -1.4,-0.9 -0.9,-1.4 -0.3,-1.6 0.3,-1.7 0.9,-1.3 1.4,-1 1.6,-0.3 1.6,0.3 1.4,1 0.9,1.3 0.4,1.7 m 0,28.3 -0.4,1.6 -0.9,1.4 -1.4,0.9 -1.6,0.4 -1.6,-0.4 -1.4,-0.9 -0.9,-1.4 -0.3,-1.6 0.3,-1.6 0.9,-1.4 1.4,-0.9 1.6,-0.3 1.6,0.3 1.4,0.9 0.9,1.4 0.4,1.6 m 28.3,-56.7 -0.3,1.6 -0.9,1.4 -1.4,0.9 -1.7,0.4 -1.6,-0.4 -1.4,-0.9 -0.9,-1.4 -0.3,-1.6 0.3,-1.6 0.9,-1.4 1.4,-0.9 1.6,-0.3 1.7,0.3 1.4,0.9 0.9,1.4 0.3,1.6 m 0,28.4 -0.3,1.6 -0.9,1.4 -1.4,0.9 -1.7,0.3 -1.6,-0.3 -1.4,-0.9 -0.9,-1.4 -0.3,-1.6 0.3,-1.7 0.9,-1.3 1.4,-1 1.6,-0.3 1.7,0.3 1.4,1 0.9,1.3 0.3,1.7 m 0,28.3 -0.3,1.6 -0.9,1.4 -1.4,0.9 -1.7,0.4 -1.6,-0.4 -1.4,-0.9 -0.9,-1.4 -0.3,-1.6 0.3,-1.6 0.9,-1.4 1.4,-0.9 1.6,-0.3 1.7,0.3 1.4,0.9 0.9,1.4 0.3,1.6 m 28.3,-56.7 -0.3,1.6 -0.9,1.4 -1.4,0.9 -1.6,0.4 -1.6,-0.4 -1.4,-0.9 -0.9,-1.4 -0.4,-1.6 0.4,-1.6 0.9,-1.4 1.4,-0.9 1.6,-0.3 1.6,0.3 1.4,0.9 0.9,1.4 0.3,1.6 m 0,28.4 -0.3,1.6 -0.9,1.4 -1.4,0.9 -1.6,0.3 -1.6,-0.3 -1.4,-0.9 -0.9,-1.4 -0.4,-1.6 0.4,-1.7 0.9,-1.3 1.4,-1 1.6,-0.3 1.6,0.3 1.4,1 0.9,1.3 0.3,1.7 m 0,28.3 -0.3,1.6 -0.9,1.4 -1.4,0.9 -1.6,0.4 -1.6,-0.4 -1.4,-0.9 -0.9,-1.4 -0.4,-1.6 0.4,-1.6 0.9,-1.4 1.4,-0.9 1.6,-0.3 1.6,0.3 1.4,0.9 0.9,1.4 0.3,1.6 m 28.4,-56.7 -0.3,1.6 -1,1.4 -1.3,0.9 -1.7,0.4 -1.6,-0.4 -1.4,-0.9 -0.9,-1.4 -0.3,-1.6 0.3,-1.6 0.9,-1.4 1.4,-0.9 1.6,-0.3 1.7,0.3 1.3,0.9 1,1.4 0.3,1.6 m 0,28.4 -0.3,1.6 -1,1.4 -1.3,0.9 -1.7,0.3 -1.6,-0.3 -1.4,-0.9 -0.9,-1.4 -0.3,-1.6 0.3,-1.7 0.9,-1.3 1.4,-1 1.6,-0.3 1.7,0.3 1.3,1 1,1.3 0.3,1.7 m 0,28.3 -0.3,1.6 -1,1.4 -1.3,0.9 -1.7,0.4 -1.6,-0.4 -1.4,-0.9 -0.9,-1.4 -0.3,-1.6 0.3,-1.6 0.9,-1.4 1.4,-0.9 1.6,-0.3 1.7,0.3 1.3,0.9 1,1.4 0.3,1.6 M 25,85.1 l 0.4,-4.7 1.1,-4.5 1.9,-4.3 2.5,-4 3.2,-3.4 3.7,-2.9 4.1,-2.2 4.5,-1.5 4.6,-0.8 4.7,0 4.6,0.8 4.4,1.5 4.1,2.2 3.7,2.9 3.2,3.4 2.5,4 1.9,4.3 1.2,4.5 0.4,4.7 m 0,0 0,467.7 m 0,0 -0.4,4.6 -1.2,4.6 -1.9,4.3 -2.5,3.9 -3.2,3.4 -3.7,2.9 -4.1,2.2 -4.4,1.6 -4.6,0.7 -4.7,0 -4.6,-0.7 -4.5,-1.6 -4.1,-2.2 -3.7,-2.9 -3.2,-3.4 -2.5,-3.9 -1.9,-4.3 -1.1,-4.6 -0.4,-4.6 m 0,0 0,-467.7 m 637.8,0 0.3,-4.7 1.2,-4.5 1.9,-4.3 2.5,-4 3.2,-3.4 3.7,-2.9 4.1,-2.2 4.4,-1.5 4.7,-0.8 4.6,0 4.7,0.8 4.4,1.5 4.1,2.2 3.7,2.9 3.2,3.4 2.5,4 1.9,4.3 1.2,4.5 0.4,4.7 m 0,0 0,467.7 m 0,0 -0.4,4.6 -1.2,4.6 -1.9,4.3 -2.5,3.9 -3.2,3.4 -3.7,2.9 -4.1,2.2 -4.4,1.6 -4.7,0.7 -4.6,0 -4.7,-0.7 -4.4,-1.6 -4.1,-2.2 -3.7,-2.9 -3.2,-3.4 -2.5,-3.9 -1.9,-4.3 -1.2,-4.6 -0.3,-4.6 m 0,0 0,-467.7 m 46.2,-99.3 2.3,-0.3 2.1,-1.1 1.5,-1.8 1,-2.1 0.2,-2.3 -0.6,-2.3 -1.3,-1.9 -1.8,-1.5 -2.2,-0.7 -2.4,0 -2.2,0.7 -1.8,1.5 -1.3,1.9 -0.6,2.3 0.2,2.3 1,2.1 1.6,1.8 2,1.1 2.3,0.3 m -673.6,0 2.3,-0.3 2.1,-1.1 1.5,-1.8 1,-2.1 0.2,-2.3 -0.6,-2.3 -1.3,-1.9 -1.8,-1.5 -2.2,-0.7 -2.4,0 -2.2,0.7 -1.8,1.5 -1.3,1.9 -0.6,2.3 0.2,2.3 1,2.1 1.6,1.8 2,1.1 2.3,0.3 m 230.5,765.4 2.3,-0.4 2.1,-1.1 1.5,-1.7 1,-2.1 0.2,-2.4 -0.6,-2.2 -1.3,-2 -1.8,-1.4 -2.2,-0.8 -2.4,0 -2.2,0.8 -1.8,1.4 -1.3,2 -0.6,2.2 0.2,2.4 1,2.1 1.6,1.7 2,1.1 2.3,0.4 m 212.6,0 2.3,-0.4 2.1,-1.1 1.5,-1.7 1,-2.1 0.2,-2.4 -0.6,-2.2 -1.3,-2 -1.8,-1.4 -2.2,-0.8 -2.4,0 -2.2,0.8 -1.8,1.4 -1.3,2 -0.6,2.2 0.2,2.4 1,2.1 1.6,1.7 2,1.1 2.3,0.4 m -154,28.3 -17.5,-1.5 -17.3,-2.3 -17.3,-3.1 -17.1,-3.8 -16.8,-4.7 -16.7,-5.5 -16.4,-6.2 -16,-6.9 -15.8,-7.7 -15.3,-8.4 -15,-9.1 -14.5,-9.8 L 114.7,700.1 101.1,689 88.1,677.4 75.6,665.1 63.7,652.3 52.4,638.9 41.7,625 31.6,610.7 22.3,595.9 13.6,580.7 m 406.4,198.8 -95.5,0 M 13.6,580.7 l -3.1,-6.3 -2.8,-6.5 -2.3,-6.6 -2,-6.7 -1.5,-6.9 -1.1,-6.9 -0.6,-7 -0.2,-7 m 744.4,0 -0.2,7 -0.6,7 -1.1,6.9 -1.5,6.9 -1.9,6.7 -2.4,6.6 -2.7,6.5 -3.2,6.3" />
      </g>
    </g>
    <g
       transform="matrix(1.25,0,0,-1.25,618.60954,2150.6174)"
       inkscape:label="20150510_MountingTop"
       id="g5030"
       style="stroke:#ff0000;stroke-opacity:1;stroke-width:0.14173228;stroke-miterlimit:4;stroke-dasharray:none;stroke-linejoin:round">
      <g
         transform="translate(632.2,1497.5)"
         id="g5032"
         style="stroke:#ff0000;stroke-opacity:1;stroke-width:0.14173228;stroke-miterlimit:4;stroke-dasharray:none;stroke-linejoin:round">
        <path
           inkscape:connector-curvature="0"
           id="path5034"
           style="fill:none;stroke:#ff0000;stroke-width:0.14173228;stroke-linecap:round;stroke-linejoin:round;stroke-miterlimit:4;stroke-dasharray:none;stroke-opacity:1"
           d="m 0,0 -56.4,0 m 0,0 0,-29.1 m -14.2,-14.2 2.1,0.2 1.9,0.4 1.9,0.7 1.8,1 1.6,1.2 1.4,1.4 1.3,1.6 0.9,1.8 0.7,1.9 0.5,2 0.1,2 m -159.6,-14.2 145.4,0 m -152.5,7.1 0.1,-1.4 0.4,-1.3 0.7,-1.2 0.9,-1.1 1,-0.9 1.3,-0.6 1.3,-0.4 1.4,-0.2 m -7.1,219.7 0,-212.6 m 7.1,219.7 -1.4,-0.1 -1.3,-0.4 -1.3,-0.7 -1,-0.9 -0.9,-1.1 -0.7,-1.2 -0.4,-1.3 -0.1,-1.4 m 304.7,7.1 -297.6,0 m 304.7,-7.1 -0.1,1.4 -0.4,1.3 -0.7,1.2 -0.9,1.1 -1,0.9 -1.3,0.7 -1.3,0.4 -1.4,0.1 m 7.1,-219.7 0,212.6 m -7.1,-219.7 1.4,0.2 1.3,0.4 1.3,0.6 1,0.9 0.9,1.1 0.7,1.2 0.4,1.3 0.1,1.4 m -74.5,-7.1 67.4,0 M 0,-29.1 l 0.2,-2 0.4,-2 0.7,-1.9 1,-1.8 1.2,-1.6 1.4,-1.4 1.6,-1.2 1.8,-1 1.9,-0.7 2,-0.4 2,-0.2 M 0,-29.1 0,0 m -208.9,-33.4 1,0.2 1,0.4 0.9,0.6 0.7,0.8 0.4,1 0.2,1 -0.1,1.1 -0.3,1 -0.6,0.9 -0.7,0.7 -1,0.6 -1,0.2 -1.1,0 -1,-0.2 -0.9,-0.6 -0.8,-0.7 -0.6,-0.9 -0.3,-1 -0.1,-1.1 0.2,-1 0.5,-1 0.7,-0.8 0.8,-0.6 1,-0.4 1.1,-0.2 m 283.4,0 1.1,0.2 1,0.4 0.8,0.6 0.7,0.8 0.5,1 0.2,1 -0.1,1.1 -0.3,1 -0.6,0.9 -0.8,0.7 -0.9,0.6 -1,0.2 -1.1,0 -1,-0.2 -1,-0.6 -0.7,-0.7 -0.6,-0.9 -0.3,-1 -0.1,-1.1 0.2,-1 0.4,-1 0.7,-0.8 0.9,-0.6 1,-0.4 1,-0.2 m 0,198.5 1.1,0.1 1,0.4 0.8,0.6 0.7,0.8 0.5,1 0.2,1.1 -0.1,1 -0.3,1 -0.6,0.9 -0.8,0.8 -0.9,0.5 -1,0.2 -1.1,0 -1,-0.2 -1,-0.5 -0.7,-0.8 -0.6,-0.9 -0.3,-1 -0.1,-1 0.2,-1.1 0.4,-1 0.7,-0.8 0.9,-0.6 1,-0.4 1,-0.1 m -283.4,0 1,0.1 1,0.4 0.9,0.6 0.7,0.8 0.4,1 0.2,1.1 -0.1,1 -0.3,1 -0.6,0.9 -0.7,0.8 -1,0.5 -1,0.2 -1.1,0 -1,-0.2 -0.9,-0.5 -0.8,-0.8 -0.6,-0.9 -0.3,-1 -0.1,-1 0.2,-1.1 0.5,-1 0.7,-0.8 0.8,-0.6 1,-0.4 1.1,-0.1 m 47.5,-154.7 0.9,0.1 0.8,0.4 0.6,0.6 0.4,0.8 0.1,0.9 -0.1,0.9 -0.4,0.8 -0.6,0.6 -0.8,0.4 -0.9,0.1 -0.9,-0.1 -0.8,-0.4 -0.6,-0.6 -0.4,-0.8 -0.1,-0.9 0.1,-0.9 0.4,-0.8 0.6,-0.6 0.8,-0.4 0.9,-0.1 m 198.4,136 0.9,0.2 0.8,0.4 0.6,0.6 0.4,0.8 0.1,0.9 -0.1,0.8 -0.4,0.8 -0.6,0.7 -0.8,0.4 -0.9,0.1 -0.9,-0.1 -0.8,-0.4 -0.6,-0.7 -0.4,-0.8 -0.1,-0.8 0.1,-0.9 0.4,-0.8 0.6,-0.6 0.8,-0.4 0.9,-0.2 m -198.4,-22.7 0.9,0.2 0.8,0.4 0.6,0.6 0.4,0.8 0.1,0.9 -0.1,0.9 -0.4,0.7 -0.6,0.7 -0.8,0.4 -0.9,0.1 -0.9,-0.1 -0.8,-0.4 -0.6,-0.7 -0.4,-0.7 -0.1,-0.9 0.1,-0.9 0.4,-0.8 0.6,-0.6 0.8,-0.4 0.9,-0.2 m 198.4,-136 0.9,0.1 0.8,0.4 0.6,0.7 0.4,0.7 0.1,0.9 -0.1,0.9 -0.4,0.8 -0.6,0.6 -0.8,0.4 -0.9,0.2 -0.9,-0.2 -0.8,-0.4 -0.6,-0.6 -0.4,-0.8 -0.1,-0.9 0.1,-0.9 0.4,-0.7 0.6,-0.7 0.8,-0.4 0.9,-0.1" />
      </g>
    </g>
    <g
       transform="matrix(1.25,0,0,-1.25,796.27795,1302.7515)"
       inkscape:label="20150510_MountingBottom"
       id="g5047"
       style="stroke:#ff0000;stroke-opacity:1;stroke-width:0.14173228;stroke-miterlimit:4;stroke-dasharray:none;stroke-linejoin:round">
      <g
         transform="translate(268.9,520.7)"
         id="g5049"
         style="stroke:#ff0000;stroke-opacity:1;stroke-width:0.14173228;stroke-miterlimit:4;stroke-dasharray:none;stroke-linejoin:round">
        <path
           inkscape:connector-curvature="0"
           id="path5051"
           style="fill:none;stroke:#ff0000;stroke-width:0.14173228;stroke-linecap:round;stroke-linejoin:round;stroke-miterlimit:4;stroke-dasharray:none;stroke-opacity:1"
           d="M 0,0 0.2,-1.4 0.6,-2.7 1.2,-3.9 2.1,-5 3.2,-5.9 4.4,-6.5 5.7,-6.9 7.1,-7.1 M 0,212.6 0,0 M 7.1,219.7 5.7,219.6 4.4,219.2 3.2,218.5 2.1,217.6 1.2,216.5 0.6,215.3 0.2,214 0,212.6 m 304.8,7.1 -297.7,0 m 304.8,-7.1 -0.2,1.4 -0.4,1.3 -0.6,1.2 -0.9,1.1 -1.1,0.9 -1.2,0.7 -1.3,0.4 -1.4,0.1 M 311.9,0 l 0,212.6 m -7.1,-219.7 1.4,0.2 1.3,0.4 1.2,0.6 1.1,0.9 0.9,1.1 0.6,1.2 0.4,1.3 0.2,1.4 m -74.5,-7.1 67.4,0 M 223.2,7 l 0.2,-2 0.4,-2 0.7,-1.9 1,-1.7 1.2,-1.6 1.4,-1.4 1.7,-1.2 1.7,-1 1.9,-0.7 2,-0.4 2,-0.2 m -14.2,19.9 0,-5.8 m 0,5.8 61.7,0 m 7.1,7.1 -0.1,-1.4 -0.4,-1.4 -0.7,-1.2 -0.9,-1.1 -1,-0.8 -1.3,-0.7 -1.3,-0.4 -1.4,-0.1 m 7.1,7.1 0,172.9 m -7.1,7.1 1.4,-0.2 1.3,-0.4 1.3,-0.6 1,-0.9 0.9,-1.1 0.7,-1.2 0.4,-1.4 0.1,-1.3 m -7.1,7.1 -257.9,0 m -7.1,-7.1 0.1,1.3 0.4,1.4 0.7,1.2 0.9,1.1 1,0.9 1.3,0.6 1.3,0.4 1.4,0.2 m -7.1,-7.1 0,-172.9 m 7.1,-7.1 -1.4,0.1 -1.3,0.4 -1.3,0.7 -1,0.8 -0.9,1.1 -0.7,1.2 -0.4,1.4 -0.1,1.4 m 132.8,-27 2.1,0.2 1.9,0.4 1.9,0.7 1.8,1 1.6,1.2 1.4,1.4 1.3,1.6 0.9,1.8 0.7,1.9 0.5,2 0.1,2 M 7.1,-7.1 l 145.6,0 m 149.2,212.6 -0.1,1.1 -0.4,1 -0.6,0.8 -0.8,0.7 -1,0.5 -1,0.2 -1.1,-0.1 -1,-0.3 -0.9,-0.6 -0.8,-0.8 -0.5,-0.9 -0.2,-1 0,-1.1 0.2,-1 0.5,-1 0.8,-0.8 0.9,-0.5 1,-0.4 1.1,0 1,0.2 1,0.4 0.8,0.7 0.6,0.9 0.4,1 0.1,1 m 0,-198.4 -0.1,1.1 -0.4,0.9 -0.6,0.9 -0.8,0.7 -1,0.4 -1,0.2 -1.1,0 -1,-0.4 -0.9,-0.5 -0.8,-0.8 -0.5,-0.9 -0.2,-1.1 0,-1 0.2,-1.1 0.5,-0.9 0.8,-0.8 0.9,-0.6 1,-0.3 1.1,0 1,0.2 1,0.4 0.8,0.7 0.6,0.8 0.4,1 0.1,1.1 m -283.4,0 -0.2,1.1 -0.4,0.9 -0.6,0.9 -0.8,0.7 -1,0.4 -1,0.2 -1.1,0 -1,-0.4 L 11.5,10.4 10.8,9.6 10.3,8.7 10,7.6 l 0,-1 0.3,-1.1 0.5,-0.9 0.7,-0.8 0.9,-0.6 1,-0.3 1.1,0 1,0.2 1,0.4 0.8,0.7 0.6,0.8 0.4,1 0.2,1.1 m 0,198.4 -0.2,1.1 -0.4,1 -0.6,0.8 -0.8,0.7 -1,0.5 -1,0.2 -1.1,-0.1 -1,-0.3 -0.9,-0.6 -0.7,-0.8 -0.5,-0.9 -0.3,-1 0,-1.1 0.3,-1 0.5,-1 0.7,-0.8 0.9,-0.5 1,-0.4 1.1,0 1,0.2 1,0.4 0.8,0.7 0.6,0.9 0.4,1 0.2,1 M 27,12.8 l 139.9,0 m 0,-5.7 0,5.7" />
      </g>
    </g>
    <g
       transform="matrix(1.25,0,0,-1.25,794.25768,1615.8987)"
       inkscape:label="20150510_MountingBottom"
       id="g5064"
       style="stroke:#ff0000;stroke-opacity:1;stroke-width:0.14173228;stroke-miterlimit:4;stroke-dasharray:none;stroke-linejoin:round">
      <g
         transform="translate(268.9,520.7)"
         id="g5066"
         style="stroke:#ff0000;stroke-opacity:1;stroke-width:0.14173228;stroke-miterlimit:4;stroke-dasharray:none;stroke-linejoin:round">
        <path
           inkscape:connector-curvature="0"
           id="path5068"
           style="fill:none;stroke:#ff0000;stroke-width:0.14173228;stroke-linecap:round;stroke-linejoin:round;stroke-miterlimit:4;stroke-dasharray:none;stroke-opacity:1"
           d="M 0,0 0.2,-1.4 0.6,-2.7 1.2,-3.9 2.1,-5 3.2,-5.9 4.4,-6.5 5.7,-6.9 7.1,-7.1 M 0,212.6 0,0 M 7.1,219.7 5.7,219.6 4.4,219.2 3.2,218.5 2.1,217.6 1.2,216.5 0.6,215.3 0.2,214 0,212.6 m 304.8,7.1 -297.7,0 m 304.8,-7.1 -0.2,1.4 -0.4,1.3 -0.6,1.2 -0.9,1.1 -1.1,0.9 -1.2,0.7 -1.3,0.4 -1.4,0.1 M 311.9,0 l 0,212.6 m -7.1,-219.7 1.4,0.2 1.3,0.4 1.2,0.6 1.1,0.9 0.9,1.1 0.6,1.2 0.4,1.3 0.2,1.4 m -74.5,-7.1 67.4,0 M 223.2,7 l 0.2,-2 0.4,-2 0.7,-1.9 1,-1.7 1.2,-1.6 1.4,-1.4 1.7,-1.2 1.7,-1 1.9,-0.7 2,-0.4 2,-0.2 m -14.2,19.9 0,-5.8 m 0,5.8 61.7,0 m 7.1,7.1 -0.1,-1.4 -0.4,-1.4 -0.7,-1.2 -0.9,-1.1 -1,-0.8 -1.3,-0.7 -1.3,-0.4 -1.4,-0.1 m 7.1,7.1 0,172.9 m -7.1,7.1 1.4,-0.2 1.3,-0.4 1.3,-0.6 1,-0.9 0.9,-1.1 0.7,-1.2 0.4,-1.4 0.1,-1.3 m -7.1,7.1 -257.9,0 m -7.1,-7.1 0.1,1.3 0.4,1.4 0.7,1.2 0.9,1.1 1,0.9 1.3,0.6 1.3,0.4 1.4,0.2 m -7.1,-7.1 0,-172.9 m 7.1,-7.1 -1.4,0.1 -1.3,0.4 -1.3,0.7 -1,0.8 -0.9,1.1 -0.7,1.2 -0.4,1.4 -0.1,1.4 m 132.8,-27 2.1,0.2 1.9,0.4 1.9,0.7 1.8,1 1.6,1.2 1.4,1.4 1.3,1.6 0.9,1.8 0.7,1.9 0.5,2 0.1,2 M 7.1,-7.1 l 145.6,0 m 149.2,212.6 -0.1,1.1 -0.4,1 -0.6,0.8 -0.8,0.7 -1,0.5 -1,0.2 -1.1,-0.1 -1,-0.3 -0.9,-0.6 -0.8,-0.8 -0.5,-0.9 -0.2,-1 0,-1.1 0.2,-1 0.5,-1 0.8,-0.8 0.9,-0.5 1,-0.4 1.1,0 1,0.2 1,0.4 0.8,0.7 0.6,0.9 0.4,1 0.1,1 m 0,-198.4 -0.1,1.1 -0.4,0.9 -0.6,0.9 -0.8,0.7 -1,0.4 -1,0.2 -1.1,0 -1,-0.4 -0.9,-0.5 -0.8,-0.8 -0.5,-0.9 -0.2,-1.1 0,-1 0.2,-1.1 0.5,-0.9 0.8,-0.8 0.9,-0.6 1,-0.3 1.1,0 1,0.2 1,0.4 0.8,0.7 0.6,0.8 0.4,1 0.1,1.1 m -283.4,0 -0.2,1.1 -0.4,0.9 -0.6,0.9 -0.8,0.7 -1,0.4 -1,0.2 -1.1,0 -1,-0.4 L 11.5,10.4 10.8,9.6 10.3,8.7 10,7.6 l 0,-1 0.3,-1.1 0.5,-0.9 0.7,-0.8 0.9,-0.6 1,-0.3 1.1,0 1,0.2 1,0.4 0.8,0.7 0.6,0.8 0.4,1 0.2,1.1 m 0,198.4 -0.2,1.1 -0.4,1 -0.6,0.8 -0.8,0.7 -1,0.5 -1,0.2 -1.1,-0.1 -1,-0.3 -0.9,-0.6 -0.7,-0.8 -0.5,-0.9 -0.3,-1 0,-1.1 0.3,-1 0.5,-1 0.7,-0.8 0.9,-0.5 1,-0.4 1.1,0 1,0.2 1,0.4 0.8,0.7 0.6,0.9 0.4,1 0.2,1 M 27,12.8 l 139.9,0 m 0,-5.7 0,5.7" />
      </g>
    </g>
    <g
       transform="matrix(1.25,0,0,-1.25,1277.1106,1619.9394)"
       inkscape:label="20150510_MountingBottom"
       id="g5081"
       style="stroke:#ff0000;stroke-opacity:1;stroke-width:0.14173228;stroke-miterlimit:4;stroke-dasharray:none;stroke-linejoin:round">
      <g
         transform="translate(268.9,520.7)"
         id="g5083"
         style="stroke:#ff0000;stroke-opacity:1;stroke-width:0.14173228;stroke-miterlimit:4;stroke-dasharray:none;stroke-linejoin:round">
        <path
           inkscape:connector-curvature="0"
           id="path5085"
           style="fill:none;stroke:#ff0000;stroke-width:0.14173228;stroke-linecap:round;stroke-linejoin:round;stroke-miterlimit:4;stroke-dasharray:none;stroke-opacity:1"
           d="M 0,0 0.2,-1.4 0.6,-2.7 1.2,-3.9 2.1,-5 3.2,-5.9 4.4,-6.5 5.7,-6.9 7.1,-7.1 M 0,212.6 0,0 M 7.1,219.7 5.7,219.6 4.4,219.2 3.2,218.5 2.1,217.6 1.2,216.5 0.6,215.3 0.2,214 0,212.6 m 304.8,7.1 -297.7,0 m 304.8,-7.1 -0.2,1.4 -0.4,1.3 -0.6,1.2 -0.9,1.1 -1.1,0.9 -1.2,0.7 -1.3,0.4 -1.4,0.1 M 311.9,0 l 0,212.6 m -7.1,-219.7 1.4,0.2 1.3,0.4 1.2,0.6 1.1,0.9 0.9,1.1 0.6,1.2 0.4,1.3 0.2,1.4 m -74.5,-7.1 67.4,0 M 223.2,7 l 0.2,-2 0.4,-2 0.7,-1.9 1,-1.7 1.2,-1.6 1.4,-1.4 1.7,-1.2 1.7,-1 1.9,-0.7 2,-0.4 2,-0.2 m -14.2,19.9 0,-5.8 m 0,5.8 61.7,0 m 7.1,7.1 -0.1,-1.4 -0.4,-1.4 -0.7,-1.2 -0.9,-1.1 -1,-0.8 -1.3,-0.7 -1.3,-0.4 -1.4,-0.1 m 7.1,7.1 0,172.9 m -7.1,7.1 1.4,-0.2 1.3,-0.4 1.3,-0.6 1,-0.9 0.9,-1.1 0.7,-1.2 0.4,-1.4 0.1,-1.3 m -7.1,7.1 -257.9,0 m -7.1,-7.1 0.1,1.3 0.4,1.4 0.7,1.2 0.9,1.1 1,0.9 1.3,0.6 1.3,0.4 1.4,0.2 m -7.1,-7.1 0,-172.9 m 7.1,-7.1 -1.4,0.1 -1.3,0.4 -1.3,0.7 -1,0.8 -0.9,1.1 -0.7,1.2 -0.4,1.4 -0.1,1.4 m 132.8,-27 2.1,0.2 1.9,0.4 1.9,0.7 1.8,1 1.6,1.2 1.4,1.4 1.3,1.6 0.9,1.8 0.7,1.9 0.5,2 0.1,2 M 7.1,-7.1 l 145.6,0 m 149.2,212.6 -0.1,1.1 -0.4,1 -0.6,0.8 -0.8,0.7 -1,0.5 -1,0.2 -1.1,-0.1 -1,-0.3 -0.9,-0.6 -0.8,-0.8 -0.5,-0.9 -0.2,-1 0,-1.1 0.2,-1 0.5,-1 0.8,-0.8 0.9,-0.5 1,-0.4 1.1,0 1,0.2 1,0.4 0.8,0.7 0.6,0.9 0.4,1 0.1,1 m 0,-198.4 -0.1,1.1 -0.4,0.9 -0.6,0.9 -0.8,0.7 -1,0.4 -1,0.2 -1.1,0 -1,-0.4 -0.9,-0.5 -0.8,-0.8 -0.5,-0.9 -0.2,-1.1 0,-1 0.2,-1.1 0.5,-0.9 0.8,-0.8 0.9,-0.6 1,-0.3 1.1,0 1,0.2 1,0.4 0.8,0.7 0.6,0.8 0.4,1 0.1,1.1 m -283.4,0 -0.2,1.1 -0.4,0.9 -0.6,0.9 -0.8,0.7 -1,0.4 -1,0.2 -1.1,0 -1,-0.4 L 11.5,10.4 10.8,9.6 10.3,8.7 10,7.6 l 0,-1 0.3,-1.1 0.5,-0.9 0.7,-0.8 0.9,-0.6 1,-0.3 1.1,0 1,0.2 1,0.4 0.8,0.7 0.6,0.8 0.4,1 0.2,1.1 m 0,198.4 -0.2,1.1 -0.4,1 -0.6,0.8 -0.8,0.7 -1,0.5 -1,0.2 -1.1,-0.1 -1,-0.3 -0.9,-0.6 -0.7,-0.8 -0.5,-0.9 -0.3,-1 0,-1.1 0.3,-1 0.5,-1 0.7,-0.8 0.9,-0.5 1,-0.4 1.1,0 1,0.2 1,0.4 0.8,0.7 0.6,0.9 0.4,1 0.2,1 M 27,12.8 l 139.9,0 m 0,-5.7 0,5.7" />
      </g>
    </g>
  </g>
</svg>
